<?xml version="1.0" encoding="UTF-8"?><svg id="Layer_2" xmlns="http://www.w3.org/2000/svg" viewBox="0 0 286.73 59.86"><g id="Layer_1-2"><path d="m38.5,22.23c0,3.33-.53,6.35-1.58,9.08-1.05,2.73-2.54,5.06-4.46,7.01-1.92,1.94-4.23,3.45-6.93,4.51-2.7,1.06-5.68,1.6-8.94,1.6H0V0h16.58c3.27,0,6.25.53,8.94,1.6,2.7,1.06,5.01,2.57,6.93,4.53,1.92,1.95,3.41,4.29,4.46,7.02,1.05,2.73,1.58,5.76,1.58,9.08Zm-6.17,0c0-2.73-.37-5.17-1.12-7.32-.74-2.15-1.8-3.97-3.16-5.46-1.36-1.49-3.02-2.62-4.96-3.41-1.94-.79-4.11-1.18-6.51-1.18H6.01v34.69h10.57c2.4,0,4.57-.39,6.51-1.18,1.94-.79,3.6-1.92,4.96-3.39,1.36-1.48,2.42-3.29,3.16-5.44.74-2.15,1.12-4.59,1.12-7.32Z" style="stroke-width:0px;"/><path d="m74.56,39.52l-.03,4.9h-27.37V0h27.37v4.9h-21.36v14.76h17.3v4.71h-17.3v15.16h21.39Z" style="stroke-width:0px;"/><path d="m119.07,0l-18.1,44.42h-5.39L77.47,0h4.81c.54,0,.97.13,1.3.4.33.27.58.61.74,1.02l12.52,31.34c.27.7.53,1.47.79,2.29.26.83.49,1.69.7,2.6.21-.91.42-1.78.65-2.6.23-.83.47-1.59.74-2.29L112.22,1.43c.12-.35.37-.68.73-.98.36-.3.8-.45,1.32-.45h4.8Z" style="stroke-width:0px;"/><path d="m160.92,0v44.42h-6.01v-20.21h-23.96v20.21h-6.01V0h6.01v19.81h23.96V0h6.01Z" style="stroke-width:0px;"/><path d="m199.67,39.52l-.03,4.9h-27.37V0h27.37v4.9h-21.36v14.76h17.3v4.71h-17.3v15.16h21.39Z" style="stroke-width:0px;"/><path d="m233.27,39.37v5.05h-25.2V0h5.98v39.37h19.22Z" style="stroke-width:0px;"/><path d="m257.38,22.4c-1.27.42-2.72.63-4.36.63h-7.13V4.74h7.13c3.55,0,6.21.8,7.95,2.39,1.75,1.59,2.62,3.8,2.62,6.63,0,1.36-.23,2.61-.68,3.75-.37.93-.91,1.75-1.58,2.47,2.33-1.08,4.9-1.72,7.62-1.83.42-1.36.63-2.83.63-4.4,0-2.09-.34-3.98-1.01-5.67-.67-1.69-1.69-3.14-3.05-4.34-1.36-1.2-3.08-2.12-5.16-2.77-2.08-.65-4.52-.98-7.33-.98h-13.11v44.42h5.98v-16.62h6.72c1.26-2.08,2.87-3.91,4.77-5.4Z" style="stroke-width:0px;"/><path d="m10.35,54.71h-.9v-.39h.9v-.66c0-.76.39-1.17,1.1-1.17.14,0,.29.01.41.04v.38c-.08-.02-.2-.03-.33-.03-.56,0-.73.29-.73.78v.66h1.06v.39h-1.06v3.68h-.45v-3.68Z" style="stroke-width:0px;"/><path d="m12.26,56.36c0-1.17.72-2.11,1.95-2.11s1.94.95,1.94,2.11-.71,2.12-1.95,2.12-1.94-.95-1.94-2.12Zm.45,0c0,.93.53,1.72,1.48,1.72s1.49-.78,1.49-1.72-.52-1.73-1.48-1.73-1.49.78-1.49,1.73Z" style="stroke-width:0px;"/><path d="m17.15,54.33h.44v.76h.02c.23-.53.63-.84,1.14-.84.14,0,.28.02.39.07v.45c-.12-.04-.27-.08-.42-.08-.67,0-1.11.61-1.11,1.31v2.4h-.45v-4.06Z" style="stroke-width:0px;"/><path d="m21.41,56.39c0-1.19.69-2.15,1.81-2.15.67,0,1.14.34,1.45.85h.02v-2.51h.45v5.81h-.45v-.81h-.02c-.32.55-.83.89-1.48.89-1.12,0-1.78-.95-1.78-2.08Zm3.29-.03c0-1-.53-1.72-1.42-1.72-.93,0-1.42.8-1.42,1.73s.49,1.7,1.41,1.7,1.43-.73,1.43-1.71Z" style="stroke-width:0px;"/><path d="m26.39,52.58h.56v.55h-.56v-.55Zm.05,5.81v-4.06h.45v4.06h-.45Z" style="stroke-width:0px;"/><path d="m31.59,58.03c0,1.25-.79,1.83-1.91,1.83-.62,0-1.09-.18-1.44-.4l.22-.38c.34.23.73.39,1.24.39.8,0,1.43-.38,1.43-1.46v-.55h-.02c-.3.54-.82.89-1.47.89-1.09,0-1.74-.91-1.74-2.03s.67-2.07,1.79-2.07c.68,0,1.16.36,1.44.86h.02l.02-.78h.42v3.7Zm-.44-1.73c0-.94-.51-1.66-1.39-1.66s-1.39.75-1.39,1.66.48,1.65,1.39,1.65,1.39-.75,1.39-1.65Z" style="stroke-width:0px;"/><path d="m34.25,57.92l.29-.33c.36.34.83.49,1.32.49.76,0,1.14-.33,1.14-.77,0-.48-.47-.6-1.17-.76-.76-.17-1.44-.36-1.44-1.14,0-.69.56-1.17,1.52-1.17.61,0,1.09.18,1.49.58l-.3.33c-.36-.35-.73-.51-1.2-.51-.7,0-1.06.33-1.06.75,0,.48.46.58,1.17.74.77.17,1.45.38,1.45,1.15,0,.7-.58,1.2-1.59,1.2-.64,0-1.19-.17-1.62-.55Z" style="stroke-width:0px;"/><path d="m38.15,56.36c0-1.17.72-2.11,1.94-2.11s1.94.95,1.94,2.11-.71,2.12-1.94,2.12-1.94-.95-1.94-2.12Zm.45,0c0,.93.53,1.72,1.48,1.72s1.49-.78,1.49-1.72-.52-1.73-1.48-1.73-1.49.78-1.49,1.73Z" style="stroke-width:0px;"/><path d="m43.5,55.02c.26-.48.68-.77,1.29-.77.64,0,1.07.36,1.24.86.28-.57.77-.86,1.36-.86.84,0,1.35.56,1.35,1.34v2.81h-.45v-2.69c0-.58-.3-1.06-.98-1.06s-1.19.51-1.19,1.32v2.44h-.45v-2.69c0-.58-.3-1.06-.98-1.06s-1.19.52-1.19,1.32v2.44h-.45v-4.06h.44v.69h.02Z" style="stroke-width:0px;"/><path d="m52.25,57.57h-.02l-.02.82h-.42v-5.81h.45v2.57h.02c.33-.58.87-.9,1.49-.9,1.11,0,1.77.95,1.77,2.1s-.67,2.13-1.82,2.13c-.64,0-1.16-.3-1.46-.9Zm2.82-1.2c0-.92-.48-1.73-1.42-1.73s-1.42.82-1.42,1.73.49,1.7,1.41,1.7,1.43-.76,1.43-1.7Z" style="stroke-width:0px;"/><path d="m59.73,57.82c-.36.42-.83.65-1.49.65-1.23,0-1.97-.89-1.97-2.15,0-1.17.69-2.08,1.83-2.08s1.76.85,1.76,1.97c0,.08,0,.25-.02.33h-3.11c.08.89.63,1.54,1.52,1.54.48,0,.86-.18,1.14-.54l.33.29Zm-.31-1.67c-.03-.86-.5-1.51-1.32-1.51s-1.32.63-1.37,1.51h2.69Z" style="stroke-width:0px;"/><path d="m64.27,58.03c0,1.25-.79,1.83-1.91,1.83-.62,0-1.09-.18-1.44-.4l.22-.38c.34.23.73.39,1.24.39.8,0,1.43-.38,1.43-1.46v-.55h-.02c-.3.54-.82.89-1.47.89-1.09,0-1.74-.91-1.74-2.03s.67-2.07,1.79-2.07c.68,0,1.16.36,1.44.86h.02l.02-.78h.42v3.7Zm-.44-1.73c0-.94-.51-1.66-1.39-1.66s-1.39.75-1.39,1.66.48,1.65,1.39,1.65,1.39-.75,1.39-1.65Z" style="stroke-width:0px;"/><path d="m68.8,54.33l-1.79,4.46c-.3.76-.63,1.08-1.21,1.08-.2,0-.36-.04-.49-.09v-.38c.1.04.25.08.43.08.4,0,.61-.23.85-.79l.11-.26-1.66-4.09h.49l1.39,3.53h.02l1.38-3.53h.48Z" style="stroke-width:0px;"/><path d="m69.57,54.33h.44v.76h.02c.28-.54.76-.84,1.4-.84.91,0,1.45.61,1.45,1.48v2.67h-.45v-2.57c0-.64-.34-1.18-1.09-1.18s-1.31.56-1.31,1.46v2.29h-.45v-4.06Z" style="stroke-width:0px;"/><path d="m73.89,56.39c0-1.19.69-2.15,1.81-2.15.67,0,1.14.34,1.45.85h.01v-2.51h.45v5.81h-.45v-.81h-.02c-.32.55-.83.89-1.48.89-1.12,0-1.78-.95-1.78-2.08Zm3.29-.03c0-1-.53-1.72-1.42-1.72-.93,0-1.42.8-1.42,1.73s.49,1.7,1.41,1.7,1.43-.73,1.43-1.71Z" style="stroke-width:0px;"/><path d="m82.1,57.82c-.36.42-.83.65-1.49.65-1.23,0-1.97-.89-1.97-2.15,0-1.17.69-2.08,1.83-2.08s1.76.85,1.76,1.97c0,.08,0,.25-.02.33h-3.11c.08.89.63,1.54,1.52,1.54.48,0,.86-.18,1.14-.54l.33.29Zm-.31-1.67c-.03-.86-.5-1.51-1.32-1.51s-1.32.63-1.37,1.51h2.69Z" style="stroke-width:0px;"/><path d="m83.25,54.33h.44v.76h.02c.23-.53.63-.84,1.14-.84.14,0,.28.02.39.07v.45c-.12-.04-.27-.08-.42-.08-.67,0-1.11.61-1.11,1.31v2.4h-.46v-4.06Z" style="stroke-width:0px;"/><path d="m87.49,56.36c0-1.17.72-2.11,1.95-2.11s1.94.95,1.94,2.11-.71,2.12-1.95,2.12-1.94-.95-1.94-2.12Zm.45,0c0,.93.53,1.72,1.48,1.72s1.49-.78,1.49-1.72-.52-1.73-1.48-1.73-1.49.78-1.49,1.73Z" style="stroke-width:0px;"/><path d="m95.77,58.03c0,1.25-.79,1.83-1.91,1.83-.62,0-1.09-.18-1.44-.4l.22-.38c.34.23.73.39,1.24.39.8,0,1.43-.38,1.43-1.46v-.55h-.02c-.29.54-.82.89-1.47.89-1.09,0-1.74-.91-1.74-2.03s.67-2.07,1.79-2.07c.68,0,1.16.36,1.44.86h.01v-.78h.44v3.7Zm-.44-1.73c0-.94-.51-1.66-1.39-1.66s-1.39.75-1.39,1.66.48,1.65,1.39,1.65,1.39-.75,1.39-1.65Z" style="stroke-width:0px;"/><path d="m102.01,57.82c-.36.42-.83.65-1.49.65-1.23,0-1.97-.89-1.97-2.15,0-1.17.69-2.08,1.83-2.08s1.76.85,1.76,1.97c0,.08,0,.25-.02.33h-3.11c.08.89.63,1.54,1.52,1.54.48,0,.86-.18,1.14-.54l.33.29Zm-.31-1.67c-.03-.86-.5-1.51-1.32-1.51s-1.32.63-1.37,1.51h2.69Z" style="stroke-width:0px;"/><path d="m103.16,54.33h.44v.76h.02c.23-.53.63-.84,1.14-.84.14,0,.28.02.39.07v.45c-.12-.04-.27-.08-.42-.08-.67,0-1.11.61-1.11,1.31v2.4h-.46v-4.06Z" style="stroke-width:0px;"/><path d="m106.35,54.71h-.9v-.39h.9v-.66c0-.76.39-1.17,1.11-1.17.14,0,.29.01.41.04v.38c-.08-.02-.2-.03-.33-.03-.56,0-.73.29-.73.78v.66h1.06v.39h-1.06v3.68h-.45v-3.68Z" style="stroke-width:0px;"/><path d="m110.99,58.39v-.73h-.02c-.33.58-.82.81-1.35.81-.8,0-1.26-.48-1.26-1.16s.45-.99,1.04-1.11c.43-.09,1.14-.13,1.59-.14v-.53c0-.42-.33-.89-1.08-.89-.63,0-.95.32-1.07.72l-.4-.15c.19-.59.72-.96,1.49-.96.96,0,1.51.52,1.51,1.32v2.82h-.44Zm0-1.61v-.35c-.4,0-.95.05-1.32.12-.55.1-.86.29-.86.74,0,.48.34.79.87.79.77,0,1.31-.66,1.31-1.3Z" style="stroke-width:0px;"/><path d="m112.72,54.33h.44v.76h.01c.24-.53.63-.84,1.14-.84.14,0,.28.02.39.07v.45c-.12-.04-.27-.08-.42-.08-.67,0-1.11.61-1.11,1.31v2.4h-.45v-4.06Z" style="stroke-width:0px;"/><path d="m118.57,57.82c-.36.42-.83.65-1.49.65-1.23,0-1.97-.89-1.97-2.15,0-1.17.69-2.08,1.83-2.08s1.76.85,1.76,1.97c0,.08,0,.25-.02.33h-3.11c.08.89.63,1.54,1.52,1.54.48,0,.86-.18,1.14-.54l.33.29Zm-.31-1.67c-.03-.86-.5-1.51-1.32-1.51s-1.32.63-1.37,1.51h2.69Z" style="stroke-width:0px;"/><path d="m119.73,54.33h.44v.76h.02c.28-.54.76-.84,1.4-.84.91,0,1.45.61,1.45,1.48v2.67h-.45v-2.57c0-.64-.34-1.18-1.09-1.18s-1.31.56-1.31,1.46v2.29h-.45v-4.06Z" style="stroke-width:0px;"/><path d="m129.37,58.39h-.45v-.76h-.02c-.27.54-.75.84-1.4.84-.9,0-1.44-.61-1.44-1.47v-2.68h.45v2.57c0,.64.34,1.18,1.09,1.18s1.31-.56,1.31-1.46v-2.29h.45v4.06Z" style="stroke-width:0px;"/><path d="m130.39,56.39c0-1.19.69-2.15,1.81-2.15.67,0,1.14.34,1.45.85h.02v-2.51h.45v5.81h-.45v-.81h-.02c-.32.55-.83.89-1.48.89-1.12,0-1.78-.95-1.78-2.08Zm3.29-.03c0-1-.53-1.72-1.42-1.72-.93,0-1.42.8-1.42,1.73s.49,1.7,1.41,1.7,1.43-.73,1.43-1.71Z" style="stroke-width:0px;"/><path d="m138.65,54.33l-1.63,4.06h-.48l-1.64-4.06h.49l1.39,3.53h.01l1.38-3.53h.48Z" style="stroke-width:0px;"/><path d="m139.37,52.58h.56v.55h-.56v-.55Zm.05,5.81v-4.06h.45v4.06h-.45Z" style="stroke-width:0px;"/><path d="m142.45,56.47h-.82v1.92h-.45v-5.81h.45v3.5h.85l1.26-1.76h.54l-1.43,1.95,1.51,2.12h-.55l-1.35-1.92Z" style="stroke-width:0px;"/><path d="m145.14,58.39v-5.81h.45v5.81h-.45Z" style="stroke-width:0px;"/><path d="m150.07,57.82c-.36.42-.83.65-1.49.65-1.23,0-1.97-.89-1.97-2.15,0-1.17.69-2.08,1.83-2.08s1.76.85,1.76,1.97c0,.08,0,.25-.02.33h-3.11c.08.89.63,1.54,1.52,1.54.48,0,.86-.18,1.14-.54l.33.29Zm-.31-1.67c-.03-.86-.5-1.51-1.32-1.51s-1.32.63-1.37,1.51h2.69Z" style="stroke-width:0px;"/><path d="m151.22,54.33h.44v.76h.02c.23-.53.63-.84,1.14-.84.14,0,.28.02.39.07v.45c-.12-.04-.27-.08-.42-.08-.67,0-1.11.61-1.11,1.31v2.4h-.46v-4.06Z" style="stroke-width:0px;"/><path d="m155.46,55.88h1.7v.41h-1.7v-.41Z" style="stroke-width:0px;"/><path d="m159.92,52.58h.46v2.5h.01c.28-.53.75-.83,1.39-.83.91,0,1.45.61,1.45,1.48v2.67h-.45v-2.57c0-.64-.34-1.18-1.09-1.18s-1.31.56-1.31,1.46v2.29h-.46v-5.81Z" style="stroke-width:0px;"/><path d="m163.71,59.45c.08.01.17.02.24.02.43,0,.56-.27.56-.64v-4.51h.45v4.5c0,.61-.27,1.03-.93,1.03-.12,0-.24-.02-.33-.04v-.37Zm.75-6.87h.56v.55h-.56v-.55Z" style="stroke-width:0px;"/><path d="m166.14,55.21c.23-.68.83-.96,1.46-.96.76,0,1.22.33,1.39.82.29-.5.77-.82,1.41-.82,1.06,0,1.69.85,1.69,1.98,0,.08,0,.25-.02.33h-2.98c.08.89.59,1.54,1.45,1.54.46,0,.85-.21,1.09-.54l.33.29c-.33.41-.83.65-1.43.65-.78,0-1.35-.41-1.64-1.06-.26.62-.84,1.06-1.57,1.06-.77,0-1.25-.48-1.25-1.16,0-.62.39-.97,1.06-1.09.45-.08,1.17-.08,1.52-.08v-.55c0-.51-.33-.95-1.05-.95-.51,0-.91.24-1.05.72l-.4-.15Zm2.5,1.31c-.48,0-.95.02-1.26.07-.58.08-.86.26-.86.75,0,.42.33.75.86.75.75,0,1.27-.65,1.27-1.29v-.27Zm3-.36c-.03-.87-.48-1.51-1.25-1.51s-1.26.63-1.31,1.51h2.56Z" style="stroke-width:0px;"/><path d="m173.11,58.39v-5.81h.46v5.81h-.46Z" style="stroke-width:0px;"/><path d="m175.33,57.61h-.01v2.16h-.46v-5.45h.44v.82h.02c.32-.57.87-.9,1.49-.9,1.12,0,1.78.95,1.78,2.11s-.67,2.12-1.81,2.12c-.64,0-1.13-.29-1.45-.86Zm2.81-1.24c0-.92-.48-1.73-1.42-1.73s-1.42.8-1.42,1.73.5,1.7,1.41,1.7,1.43-.76,1.43-1.7Z" style="stroke-width:0px;"/><path d="m184.55,57.82c-.36.42-.83.65-1.49.65-1.23,0-1.97-.89-1.97-2.15,0-1.17.69-2.08,1.83-2.08s1.76.85,1.76,1.97c0,.08,0,.25-.02.33h-3.11c.08.89.63,1.54,1.52,1.54.48,0,.86-.18,1.14-.54l.33.29Zm-.31-1.67c-.03-.86-.5-1.51-1.32-1.51s-1.32.63-1.37,1.51h2.69Z" style="stroke-width:0px;"/><path d="m185.7,54.33h.44v.76h.02c.23-.53.63-.84,1.14-.84.14,0,.28.02.39.07v.45c-.12-.04-.27-.08-.42-.08-.67,0-1.11.61-1.11,1.31v2.4h-.46v-4.06Z" style="stroke-width:0px;"/><path d="m191.51,56.47h-.82v1.92h-.46v-5.81h.46v3.5h.85l1.26-1.76h.54l-1.43,1.95,1.51,2.12h-.55l-1.36-1.92Z" style="stroke-width:0px;"/><path d="m197.49,58.39h-.45v-.76h-.02c-.27.54-.75.84-1.4.84-.9,0-1.44-.61-1.44-1.47v-2.68h.45v2.57c0,.64.34,1.18,1.09,1.18s1.31-.56,1.31-1.46v-2.29h.45v4.06Z" style="stroke-width:0px;"/><path d="m198.79,54.33h.44v.76h.02c.28-.54.76-.84,1.4-.84.91,0,1.45.61,1.45,1.48v2.67h-.45v-2.57c0-.64-.34-1.18-1.09-1.18s-1.31.56-1.31,1.46v2.29h-.45v-4.06Z" style="stroke-width:0px;"/><path d="m205.49,54.71h-.9v-.39h.9v-.66c0-.76.39-1.17,1.11-1.17.14,0,.29.01.41.04v.38c-.08-.02-.2-.03-.33-.03-.56,0-.73.29-.73.78v.66h1.06v.39h-1.06v3.68h-.45v-3.68Z" style="stroke-width:0px;"/><path d="m210.13,58.39v-.73h-.02c-.33.58-.82.81-1.36.81-.8,0-1.26-.48-1.26-1.16s.45-.99,1.04-1.11c.43-.09,1.14-.13,1.59-.14v-.53c0-.42-.33-.89-1.08-.89-.63,0-.95.32-1.08.72l-.4-.15c.19-.59.72-.96,1.49-.96.96,0,1.51.52,1.51,1.32v2.82h-.44Zm0-1.61v-.35c-.4,0-.95.05-1.32.12-.55.1-.86.29-.86.74,0,.48.34.79.87.79.77,0,1.31-.66,1.31-1.3Zm-1.01-4.6c.48,0,.85.37.85.84s-.36.84-.85.84-.85-.37-.85-.84.36-.84.85-.84Zm0,1.4c.33,0,.54-.26.54-.56s-.21-.56-.54-.56-.54.26-.54.56.22.56.54.56Z" style="stroke-width:0px;"/><path d="m214.89,56.47h-.82v1.92h-.45v-5.81h.45v3.5h.85l1.26-1.76h.54l-1.43,1.95,1.51,2.12h-.55l-1.35-1.92Z" style="stroke-width:0px;"/><path d="m217.57,58.39v-5.81h.45v5.81h-.45Z" style="stroke-width:0px;"/><path d="m219.28,52.58h.56v.55h-.56v-.55Zm.05,5.81v-4.06h.45v4.06h-.45Z" style="stroke-width:0px;"/><path d="m222.36,56.47h-.82v1.92h-.46v-5.81h.46v3.5h.85l1.26-1.76h.54l-1.43,1.95,1.51,2.12h-.55l-1.36-1.92Z" style="stroke-width:0px;"/><path d="m229.86,54.33l-1.63,4.06h-.48l-1.64-4.06h.49l1.39,3.53h.01l1.38-3.53h.48Z" style="stroke-width:0px;"/><path d="m230.34,55.21c.23-.68.83-.96,1.46-.96.76,0,1.22.33,1.39.82.29-.5.77-.82,1.41-.82,1.06,0,1.69.85,1.69,1.98,0,.08,0,.25-.02.33h-2.98c.08.89.59,1.54,1.45,1.54.46,0,.85-.21,1.09-.54l.33.29c-.33.41-.83.65-1.43.65-.78,0-1.35-.41-1.64-1.06-.26.62-.84,1.06-1.57,1.06-.77,0-1.25-.48-1.25-1.16,0-.62.39-.97,1.06-1.09.45-.08,1.17-.08,1.52-.08v-.55c0-.51-.33-.95-1.05-.95-.51,0-.91.24-1.05.72l-.4-.15Zm2.5,1.31c-.48,0-.95.02-1.26.07-.58.08-.86.26-.86.75,0,.42.33.75.86.75.75,0,1.27-.65,1.27-1.29v-.27Zm3-.36c-.03-.87-.48-1.51-1.25-1.51s-1.26.63-1.31,1.51h2.56Z" style="stroke-width:0px;"/><path d="m238.57,56.47h-.82v1.92h-.46v-5.81h.46v3.5h.85l1.26-1.76h.54l-1.43,1.95,1.51,2.12h-.55l-1.36-1.92Z" style="stroke-width:0px;"/><path d="m241.44,57.8h.59v.59h-.59v-.59Zm.05-5.22h.48l-.05,4.34h-.39l-.05-4.34Z" style="stroke-width:0px;"/><path d="m263.31,33.98c-2.82,0-4.31,2.43-4.31,5.23s1.49,5.16,4.26,5.16,4.33-2.22,4.33-5.18-1.6-5.2-4.29-5.2Z" style="fill:#bc8d2e; stroke-width:0px;"/><path d="m269.7,20.7c-9.41,0-17.03,7.62-17.03,17.03s7.62,17.03,17.03,17.03,17.03-7.62,17.03-17.03-7.62-17.03-17.03-17.03Zm-.77,24.63h-1.35l-.02-2.45h-.05c-.96,1.67-2.52,2.7-4.49,2.7-3.39,0-5.39-2.86-5.39-6.3s2.09-6.51,5.48-6.51c2.02,0,3.46,1.03,4.4,2.57h.05v-7.61h1.38v17.6Zm11.9,0l-4.1-5.82h-2.48v5.82h-1.38v-17.6h1.38v10.61h2.57l3.83-5.32h1.63l-4.33,5.89,4.56,6.42h-1.67Z" style="fill:#bc8d2e; stroke-width:0px;"/></g></svg>