<?xml version="1.0" encoding="UTF-8"?><svg id="Layer_2" xmlns="http://www.w3.org/2000/svg" viewBox="0 0 274.49 87"><g id="Layer_1-2"><path d="m9.59,20.73c3.43,0,6.25.67,8.47,2,2.22,1.33,3.87,3.26,4.94,5.77,1.08,2.52,1.61,5.56,1.61,9.14s-.53,6.58-1.6,9.1c-1.07,2.53-2.71,4.46-4.92,5.79-2.21,1.33-5.05,2-8.51,2H0V20.73h9.59Zm-6.93,31.35h6.88c2.12,0,3.96-.32,5.53-.96,1.57-.64,2.85-1.58,3.85-2.82,1-1.24,1.75-2.76,2.24-4.55.49-1.79.73-3.84.73-6.16,0-3.03-.44-5.63-1.33-7.79s-2.24-3.81-4.05-4.96c-1.81-1.14-4.14-1.71-6.97-1.71H2.66v28.94Z" style="fill:#c09f53; stroke-width:0px;"/><path d="m52.78,54.54h-19.55V20.73h19.55v2.43h-16.87v12.84h15.97v2.41h-15.97v13.66h16.87v2.46Z" style="fill:#c09f53; stroke-width:0px;"/><path d="m57.63,20.73h2.98l10.63,30.6h.17l10.73-30.6h2.98l-12.44,33.81h-2.73l-12.32-33.81Z" style="fill:#c09f53; stroke-width:0px;"/><path d="m113.21,54.54v-16.47h-18.93v16.47h-2.66V20.73h2.66v14.93h18.93v-14.93h2.66v33.81h-2.66Z" style="fill:#c09f53; stroke-width:0px;"/><path d="m145.68,54.54h-19.55V20.73h19.55v2.43h-16.87v12.84h15.97v2.41h-15.97v13.66h16.87v2.46Z" style="fill:#c09f53; stroke-width:0px;"/><path d="m173.35,54.54h-19.23V20.73h2.66v31.37h16.57v2.43Z" style="fill:#c09f53; stroke-width:0px;"/><path d="m197.18,21.96c1.57.82,2.77,1.99,3.61,3.5s1.27,3.31,1.27,5.38-.42,3.79-1.27,5.3-2.05,2.69-3.61,3.53c-1.56.84-3.46,1.25-5.68,1.25h-8.62v13.61h-2.68V20.73h11.3c2.22,0,4.11.41,5.68,1.23Zm.1,3.22c-1.38-1.34-3.34-2.01-5.87-2.01h-8.52v15.33h8.52c1.71,0,3.15-.31,4.32-.92s2.07-1.49,2.7-2.63.93-2.51.93-4.1c0-2.43-.69-4.32-2.07-5.66Z" style="fill:#c09f53; stroke-width:0px;"/><path d="m204.72,50.64c.48-.5,1.06-.75,1.74-.75.73,0,1.34.24,1.83.73.49.49.73,1.1.73,1.83s-.25,1.28-.75,1.75c-.5.47-1.1.71-1.81.71s-1.26-.24-1.74-.71c-.48-.47-.72-1.06-.72-1.75s.24-1.32.72-1.81Z" style="fill:#c09f53; stroke-width:0px;"/><path d="m227.72,20.73c3.43,0,6.25.67,8.47,2,2.22,1.33,3.87,3.26,4.94,5.77,1.08,2.52,1.61,5.56,1.61,9.14s-.53,6.58-1.6,9.1c-1.07,2.53-2.71,4.46-4.92,5.79-2.21,1.33-5.05,2-8.51,2h-9.59V20.73h9.59Zm-6.93,31.35h6.88c2.12,0,3.96-.32,5.53-.96,1.57-.64,2.85-1.58,3.85-2.82,1-1.24,1.75-2.76,2.24-4.55.49-1.79.73-3.84.73-6.16,0-3.03-.44-5.63-1.33-7.79s-2.24-3.81-4.05-4.96c-1.81-1.14-4.14-1.71-6.97-1.71h-6.88v28.94Z" style="fill:#c09f53; stroke-width:0px;"/><path d="m260.26,35.54l14.23,19h-3.43l-12.79-17.19-4.25,4.52v12.67h-2.66V20.73h2.66v17.61h.1l16.32-17.61h3.28l-13.46,14.8Z" style="fill:#c09f53; stroke-width:0px;"/><path d="m.76,11.31L4.61.6h.6l3.85,10.71h-.61l-1.28-3.65H2.65l-1.28,3.65h-.6ZM4.89,1.29l-2.09,5.88h4.19L4.93,1.29h-.04Z" style="fill:#fff; stroke-width:0px;"/><path d="m15.09,11.31V.6h.57v10.71h-.57Z" style="fill:#fff; stroke-width:0px;"/><path d="m18.96,3.17h.56v1.64h.03c.09-.28.24-.55.45-.82s.5-.5.87-.68c.37-.18.82-.28,1.36-.28.8,0,1.47.25,1.99.74.53.49.79,1.21.79,2.14v5.4h-.56v-5.3c0-.46-.09-.88-.26-1.25s-.43-.67-.77-.88c-.34-.22-.76-.32-1.25-.32-.58,0-1.07.14-1.46.41-.4.27-.69.63-.89,1.07-.2.44-.3.9-.3,1.39v4.89h-.56V3.17Z" style="fill:#fff; stroke-width:0px;"/><path d="m28.32,1.2h.56v1.98h2.29v.48h-2.29v5.85c0,.52.11.87.34,1.07.23.2.62.3,1.19.3.12,0,.27,0,.46-.02.19-.02.33-.03.43-.04v.5c-.11.02-.26.03-.46.04-.19.01-.35.02-.47.02-.52,0-.93-.06-1.23-.19s-.51-.32-.63-.6c-.12-.28-.19-.65-.19-1.1V3.66h-1.61v-.48h1.61v-1.98Z" style="fill:#fff; stroke-width:0px;"/><path d="m33.74,10.8c-.49-.43-.74-1.03-.74-1.78,0-.67.23-1.21.7-1.63.47-.42,1.15-.63,2.07-.63h2.54v-1.2c0-.7-.21-1.21-.62-1.53s-.95-.48-1.61-.48c-.49,0-.89.07-1.19.22-.31.15-.53.33-.69.54-.15.21-.25.42-.27.61h-.56c.02-.24.09-.48.22-.7.12-.23.3-.43.53-.61.23-.18.51-.32.84-.43.33-.11.72-.16,1.16-.16.55,0,1.03.09,1.44.27.41.18.73.45.97.81.23.36.35.81.35,1.36v5.84h-.55v-1.36h-.04c-.06.16-.19.36-.39.6-.21.24-.49.45-.85.63-.36.18-.82.27-1.36.27-.79,0-1.43-.22-1.92-.65Zm3.26-.17c.39-.2.7-.47.94-.83s.36-.77.36-1.25v-1.29h-2.54c-.75,0-1.3.16-1.65.49-.35.33-.52.75-.52,1.26,0,.59.2,1.05.6,1.4s.91.52,1.52.52c.47,0,.89-.1,1.28-.3Z" style="fill:#fff; stroke-width:0px;"/><path d="m41.87,4.01c.24-.33.56-.57.97-.73.41-.16.87-.24,1.38-.24.68,0,1.22.12,1.62.35.4.23.69.51.86.84.17.33.26.64.26.93h-.55c0-.21-.07-.43-.21-.68s-.36-.47-.68-.66c-.32-.19-.75-.28-1.3-.28s-1.08.14-1.5.41c-.42.27-.63.68-.63,1.22,0,.25.05.47.15.65.1.18.24.33.43.47.19.13.42.25.69.35.27.1.59.2.94.29.5.13.97.27,1.4.42.43.16.77.37,1.03.64.26.27.39.66.39,1.17s-.14.95-.41,1.29c-.28.34-.64.59-1.08.76-.45.16-.93.24-1.46.24-.73,0-1.3-.12-1.73-.35s-.74-.52-.93-.86c-.19-.34-.28-.67-.28-.99h.56c0,.23.07.47.22.73.15.26.4.49.74.68.34.19.82.29,1.43.29.42,0,.81-.06,1.17-.19s.65-.32.87-.57.33-.58.33-.97-.12-.7-.35-.92c-.23-.22-.53-.39-.9-.51-.37-.12-.75-.23-1.15-.33-.54-.14-1-.29-1.4-.46s-.7-.4-.91-.69c-.22-.28-.32-.65-.32-1.1s.12-.86.35-1.19Z" style="fill:#fff; stroke-width:0px;"/><path d="m50.11,1.2h.56v1.98h2.29v.48h-2.29v5.85c0,.52.11.87.34,1.07.23.2.62.3,1.19.3.12,0,.27,0,.46-.02.19-.02.33-.03.43-.04v.5c-.11.02-.26.03-.46.04-.19.01-.35.02-.47.02-.52,0-.93-.06-1.23-.19s-.51-.32-.63-.6c-.12-.28-.19-.65-.19-1.1V3.66h-1.61v-.48h1.61v-1.98Z" style="fill:#fff; stroke-width:0px;"/><path d="m56.39,11.02c-.48-.29-.86-.71-1.12-1.26-.26-.55-.39-1.22-.39-2v-.91c0-.84.13-1.54.4-2.11.27-.56.64-.99,1.11-1.27.48-.28,1.02-.43,1.64-.43s1.17.14,1.64.43c.47.28.84.71,1.11,1.28.27.57.4,1.27.4,2.1v.43h-5.74v.47c0,1.03.24,1.82.73,2.37.48.55,1.13.82,1.95.82.52,0,.95-.09,1.29-.26.34-.17.6-.38.78-.63.18-.25.28-.5.31-.73h.58c-.02.22-.09.46-.22.71s-.31.48-.55.7c-.24.22-.54.39-.9.53-.36.14-.79.2-1.28.2-.67,0-1.25-.14-1.73-.43Zm4.23-4.23v-.05c0-.68-.11-1.26-.32-1.73-.22-.48-.52-.84-.9-1.09s-.84-.37-1.36-.37-.97.12-1.36.37c-.39.25-.69.61-.91,1.09-.22.48-.32,1.06-.32,1.73v.05h5.18Z" style="fill:#fff; stroke-width:0px;"/><path d="m63.93,0h.55v11.31h-.55V0Z" style="fill:#fff; stroke-width:0px;"/><path d="m67.75,0h.55v11.31h-.55V0Z" style="fill:#fff; stroke-width:0px;"/><path d="m71.67,10.8c-.49-.43-.74-1.03-.74-1.78,0-.67.23-1.21.7-1.63.47-.42,1.15-.63,2.07-.63h2.54v-1.2c0-.7-.21-1.21-.62-1.53s-.95-.48-1.61-.48c-.49,0-.89.07-1.19.22-.31.15-.53.33-.69.54-.15.21-.25.42-.27.61h-.56c.02-.24.09-.48.22-.7.12-.23.3-.43.53-.61.23-.18.51-.32.84-.43.33-.11.72-.16,1.16-.16.55,0,1.03.09,1.44.27.41.18.73.45.97.81.23.36.35.81.35,1.36v5.84h-.55v-1.36h-.04c-.06.16-.19.36-.39.6-.21.24-.49.45-.85.63-.36.18-.82.27-1.36.27-.79,0-1.43-.22-1.92-.65Zm3.26-.17c.39-.2.7-.47.94-.83s.36-.77.36-1.25v-1.29h-2.54c-.75,0-1.3.16-1.65.49-.35.33-.52.75-.52,1.26,0,.59.2,1.05.6,1.4s.91.52,1.52.52c.47,0,.89-.1,1.28-.3Z" style="fill:#fff; stroke-width:0px;"/><path d="m79.75,3.17h.56v1.62h.03c.05-.24.17-.5.35-.76.18-.27.45-.5.78-.69.34-.19.76-.29,1.27-.29.18,0,.33,0,.44.02.12.02.2.03.24.04v.54s-.12-.03-.25-.05-.29-.03-.48-.03c-.42,0-.81.1-1.18.29s-.66.49-.88.89-.33.92-.33,1.54v5.01h-.56V3.17Z" style="fill:#fff; stroke-width:0px;"/><path d="m89.1,8.65c.02.24.08.5.19.78s.29.54.53.78.56.44.95.6c.39.15.87.23,1.45.23.61,0,1.14-.1,1.6-.31.45-.21.81-.49,1.06-.85.25-.36.38-.77.38-1.23,0-.69-.22-1.21-.67-1.54-.44-.33-1.08-.61-1.92-.84l-1.34-.35c-.52-.14-.96-.32-1.32-.56-.37-.24-.65-.53-.84-.88-.19-.35-.29-.77-.29-1.27,0-.56.14-1.06.41-1.49.28-.43.67-.77,1.17-1.01.51-.24,1.11-.37,1.82-.37s1.34.12,1.83.37c.49.25.86.57,1.12.97.26.4.39.82.39,1.28h-.58c-.02-.32-.12-.64-.31-.97s-.49-.59-.89-.81c-.4-.22-.92-.32-1.57-.32-.87,0-1.56.22-2.06.65-.5.43-.75,1-.75,1.69,0,.63.18,1.1.55,1.42.37.32.9.58,1.59.78l1.28.35c.64.17,1.18.38,1.61.61.43.23.76.52.99.88.23.35.34.81.34,1.37,0,.59-.16,1.11-.47,1.56-.31.45-.74.79-1.29,1.03-.55.24-1.19.36-1.93.36-.65,0-1.21-.09-1.67-.28-.46-.18-.83-.42-1.12-.72-.29-.29-.5-.61-.63-.95-.14-.34-.21-.66-.21-.97h.58Z" style="fill:#fff; stroke-width:0px;"/><path d="m102.94,3.44c.5.27.9.68,1.2,1.21.3.53.45,1.19.45,1.96v1.28c0,.78-.15,1.44-.45,1.97-.3.53-.7.92-1.2,1.19-.5.26-1.06.39-1.67.39s-1.17-.13-1.67-.4c-.5-.27-.9-.66-1.19-1.19-.29-.53-.44-1.18-.44-1.95v-1.29c0-.78.15-1.44.44-1.97s.69-.93,1.19-1.2,1.05-.4,1.67-.4,1.17.14,1.67.41Zm-3.05.45c-.41.24-.74.59-.98,1.06-.24.47-.36,1.05-.36,1.74v1.12c0,.69.12,1.26.36,1.73s.56.81.97,1.04c.41.23.88.35,1.41.35s.99-.12,1.4-.35c.41-.23.74-.58.98-1.04.24-.46.36-1.04.36-1.73v-1.12c0-.68-.12-1.26-.36-1.73-.24-.47-.57-.83-.98-1.07-.42-.24-.88-.36-1.4-.36s-.98.12-1.39.36Z" style="fill:#fff; stroke-width:0px;"/><path d="m107.34,0h.55v11.31h-.55V0Z" style="fill:#fff; stroke-width:0px;"/><path d="m117,11.31h-.56v-1.62h-.04c-.08.26-.24.52-.46.8s-.52.51-.89.69c-.37.18-.82.28-1.34.28s-.98-.1-1.4-.3c-.42-.2-.75-.5-.99-.9-.24-.4-.37-.92-.37-1.54V3.17h.55v5.46c0,.47.09.87.28,1.22.18.35.45.61.78.8s.74.28,1.19.28c.58,0,1.07-.14,1.47-.42.4-.28.7-.64.91-1.08.21-.44.31-.9.31-1.38V3.17h.55v8.14Z" style="fill:#fff; stroke-width:0px;"/><path d="m120.44,1.2h.56v1.98h2.29v.48h-2.29v5.85c0,.52.11.87.34,1.07.23.2.62.3,1.19.3.12,0,.27,0,.46-.02.19-.02.33-.03.43-.04v.5c-.11.02-.26.03-.46.04-.19.01-.35.02-.47.02-.52,0-.93-.06-1.23-.19s-.51-.32-.63-.6c-.12-.28-.19-.65-.19-1.1V3.66h-1.61v-.48h1.61v-1.98Z" style="fill:#fff; stroke-width:0px;"/><path d="m125.69.39c.1-.1.23-.15.39-.15s.27.05.38.15c.1.1.16.23.16.38s-.05.27-.16.38c-.11.11-.23.16-.38.16s-.28-.05-.39-.16-.16-.24-.16-.38.05-.28.16-.38Zm.1,2.78h.56v8.14h-.56V3.17Z" style="fill:#fff; stroke-width:0px;"/><path d="m134.1,3.44c.5.27.9.68,1.2,1.21.3.53.45,1.19.45,1.96v1.28c0,.78-.15,1.44-.45,1.97-.3.53-.7.92-1.2,1.19-.5.26-1.06.39-1.67.39s-1.17-.13-1.67-.4c-.5-.27-.9-.66-1.19-1.19-.29-.53-.44-1.18-.44-1.95v-1.29c0-.78.15-1.44.44-1.97s.69-.93,1.19-1.2,1.05-.4,1.67-.4,1.17.14,1.67.41Zm-3.05.45c-.41.24-.74.59-.98,1.06-.24.47-.36,1.05-.36,1.74v1.12c0,.69.12,1.26.36,1.73s.56.81.97,1.04c.41.23.88.35,1.41.35s.99-.12,1.4-.35c.41-.23.74-.58.98-1.04.24-.46.36-1.04.36-1.73v-1.12c0-.68-.12-1.26-.36-1.73-.24-.47-.57-.83-.98-1.07-.42-.24-.88-.36-1.4-.36s-.98.12-1.39.36Z" style="fill:#fff; stroke-width:0px;"/><path d="m138.37,3.17h.56v1.64h.03c.09-.28.24-.55.45-.82s.5-.5.87-.68c.37-.18.82-.28,1.36-.28.8,0,1.47.25,1.99.74.53.49.79,1.21.79,2.14v5.4h-.56v-5.3c0-.46-.09-.88-.26-1.25s-.43-.67-.77-.88c-.34-.22-.76-.32-1.25-.32-.58,0-1.07.14-1.46.41-.4.27-.69.63-.89,1.07-.2.44-.3.9-.3,1.39v4.89h-.56V3.17Z" style="fill:#fff; stroke-width:0px;"/><path d="m147.4,4.01c.24-.33.56-.57.97-.73.41-.16.87-.24,1.38-.24.68,0,1.22.12,1.62.35.4.23.69.51.86.84.17.33.26.64.26.93h-.55c0-.21-.07-.43-.21-.68s-.36-.47-.68-.66c-.32-.19-.75-.28-1.3-.28s-1.08.14-1.5.41c-.42.27-.63.68-.63,1.22,0,.25.05.47.15.65.1.18.24.33.43.47.19.13.42.25.69.35.27.1.59.2.94.29.5.13.97.27,1.4.42.43.16.77.37,1.03.64.26.27.39.66.39,1.17s-.14.95-.41,1.29c-.28.34-.64.59-1.08.76-.45.16-.93.24-1.46.24-.73,0-1.3-.12-1.73-.35s-.74-.52-.93-.86c-.19-.34-.28-.67-.28-.99h.56c0,.23.07.47.22.73.15.26.4.49.74.68.34.19.82.29,1.43.29.42,0,.81-.06,1.17-.19s.65-.32.87-.57.33-.58.33-.97-.12-.7-.35-.92c-.23-.22-.53-.39-.9-.51-.37-.12-.75-.23-1.15-.33-.54-.14-1-.29-1.4-.46s-.7-.4-.91-.69c-.22-.28-.32-.65-.32-1.1s.12-.86.35-1.19Z" style="fill:#fff; stroke-width:0px;"/><path d="m160.72,11.15c-.37-.2-.66-.44-.86-.71s-.35-.52-.43-.74h-.03v4.22h-.56V3.17h.55v1.65h.03c.04-.13.11-.29.23-.48.12-.2.28-.4.5-.6.21-.2.48-.37.81-.5.33-.14.72-.2,1.17-.2.59,0,1.12.14,1.58.42.46.28.83.67,1.1,1.18.27.51.4,1.11.4,1.82v1.58c0,.77-.14,1.4-.43,1.91-.29.51-.67.89-1.14,1.14-.47.25-.98.38-1.52.38s-1.03-.1-1.4-.3Zm2.62-.54c.39-.22.7-.55.95-1s.36-1.03.36-1.73v-1.32c0-.65-.12-1.2-.34-1.65-.23-.45-.54-.79-.92-1.02-.39-.23-.82-.35-1.3-.35-.58,0-1.07.14-1.47.42-.4.28-.71.64-.91,1.1-.2.45-.31.94-.31,1.46v1.44c0,.56.11,1.06.33,1.51s.53.81.94,1.07c.4.26.88.39,1.42.39.45,0,.87-.11,1.25-.32Z" style="fill:#fff; stroke-width:0px;"/><path d="m167.97,0h.55v11.31h-.55V0Z" style="fill:#fff; stroke-width:0px;"/><path d="m171.89,10.8c-.49-.43-.74-1.03-.74-1.78,0-.67.23-1.21.7-1.63.46-.42,1.16-.63,2.07-.63h2.54v-1.2c0-.7-.21-1.21-.62-1.53s-.95-.48-1.61-.48c-.49,0-.89.07-1.19.22s-.54.33-.69.54c-.16.21-.25.42-.27.61h-.56c.02-.24.09-.48.22-.7.12-.23.3-.43.53-.61.23-.18.51-.32.84-.43.33-.11.72-.16,1.16-.16.55,0,1.03.09,1.44.27.41.18.73.45.97.81.23.36.35.81.35,1.36v5.84h-.55v-1.36h-.04c-.06.16-.19.36-.39.6-.21.24-.49.45-.85.63-.36.18-.82.27-1.36.27-.79,0-1.43-.22-1.92-.65Zm3.26-.17c.39-.2.7-.47.94-.83.24-.35.36-.77.36-1.25v-1.29h-2.54c-.75,0-1.3.16-1.65.49-.35.33-.52.75-.52,1.26,0,.59.2,1.05.6,1.4s.91.52,1.52.52c.47,0,.89-.1,1.28-.3Z" style="fill:#fff; stroke-width:0px;"/><path d="m180.34,1.2h.56v1.98h2.29v.48h-2.29v5.85c0,.52.11.87.34,1.07.23.2.62.3,1.19.3.12,0,.27,0,.46-.02.19-.02.33-.03.42-.04v.5c-.11.02-.26.03-.46.04s-.35.02-.47.02c-.52,0-.93-.06-1.23-.19s-.51-.32-.63-.6c-.12-.28-.18-.65-.18-1.1V3.66h-1.61v-.48h1.61v-1.98Z" style="fill:#fff; stroke-width:0px;"/><path d="m185.96,3.66h-1.44v-.48h1.44v-1.09c0-.7.17-1.22.5-1.54s.86-.49,1.59-.49c.15,0,.32,0,.5.03.18.02.31.04.4.06v.49c-.08-.01-.21-.02-.38-.04-.17-.01-.34-.02-.5-.02-.57,0-.97.12-1.2.35-.23.23-.35.62-.35,1.17v1.08h2.33v.48h-2.33v7.65h-.56V3.66Z" style="fill:#fff; stroke-width:0px;"/><path d="m195.27,3.44c.5.27.9.68,1.2,1.21.3.53.45,1.19.45,1.96v1.28c0,.78-.15,1.44-.45,1.97-.3.53-.7.92-1.2,1.19s-1.06.39-1.67.39-1.17-.13-1.67-.4c-.5-.27-.89-.66-1.19-1.19-.29-.53-.44-1.18-.44-1.95v-1.29c0-.78.15-1.44.44-1.97s.69-.93,1.19-1.2c.5-.27,1.05-.4,1.67-.4s1.17.14,1.67.41Zm-3.05.45c-.41.24-.74.59-.98,1.06-.24.47-.36,1.05-.36,1.74v1.12c0,.69.12,1.26.36,1.73.24.46.56.81.97,1.04.41.23.88.35,1.41.35s.99-.12,1.4-.35c.41-.23.74-.58.98-1.04.24-.46.36-1.04.36-1.73v-1.12c0-.68-.12-1.26-.36-1.73-.24-.47-.57-.83-.98-1.07-.42-.24-.88-.36-1.4-.36s-.98.12-1.39.36Z" style="fill:#fff; stroke-width:0px;"/><path d="m199.56,3.17h.56v1.62h.03c.05-.24.17-.5.35-.76.18-.27.45-.5.78-.69s.76-.29,1.27-.29c.18,0,.33,0,.44.02.12.02.2.03.24.04v.54s-.12-.03-.25-.05c-.12-.02-.29-.03-.49-.03-.42,0-.81.1-1.18.29-.37.19-.66.49-.88.89s-.33.92-.33,1.54v5.01h-.56V3.17Z" style="fill:#fff; stroke-width:0px;"/><path d="m205.16,3.17h.56v1.43h.03c.06-.21.17-.43.34-.67.17-.24.41-.46.73-.63.32-.18.73-.27,1.23-.27.48,0,.88.08,1.22.25.33.17.6.39.8.65.2.27.33.55.4.84h.03c.05-.21.17-.45.35-.73.18-.27.45-.51.8-.72s.79-.31,1.32-.31c.75,0,1.38.22,1.87.67.5.45.75,1.12.75,2.01v5.6h-.55v-5.45c0-.52-.09-.95-.27-1.29-.18-.34-.43-.6-.75-.76-.32-.17-.68-.25-1.09-.25-.49,0-.91.12-1.25.35-.34.23-.59.53-.77.9-.17.37-.26.76-.26,1.17v5.34h-.56v-5.42c0-.5-.09-.92-.26-1.27-.17-.35-.41-.61-.73-.8s-.69-.28-1.12-.28c-.5,0-.92.12-1.25.35-.34.23-.59.54-.76.93s-.26.81-.26,1.27v5.21h-.56V3.17Z" style="fill:#fff; stroke-width:0px;"/><path d="m9.72,73.48h.94l3.35,9.63h.05l3.38-9.63h.94l-3.92,10.64h-.86l-3.88-10.64Z" style="fill:#fff; stroke-width:0px;"/><path d="m20.42,73.05c.13-.13.3-.2.49-.2s.36.07.5.2.2.3.2.5-.07.36-.2.49-.3.2-.5.2-.36-.07-.49-.2-.2-.3-.2-.49.07-.36.2-.5Zm.08,2.95h.82v8.12h-.82v-8.12Z" style="fill:#fff; stroke-width:0px;"/><path d="m28.09,72.89h.83v4.67h.05c.07-.23.2-.48.41-.75.2-.27.49-.49.85-.68.36-.19.82-.28,1.36-.28.8,0,1.46.24,1.99.71s.79,1.17.79,2.09v5.46h-.82v-5.24c0-.45-.08-.85-.25-1.2-.17-.34-.41-.61-.73-.8-.31-.19-.7-.29-1.16-.29-.54,0-1,.13-1.37.39-.37.26-.65.6-.83,1.02-.19.42-.28.88-.28,1.37v4.74h-.83v-11.22Z" style="fill:#fff; stroke-width:0px;"/><path d="m38.27,84.58c0,.55-.07,1-.22,1.33s-.36.58-.63.73c-.28.15-.62.23-1.02.23-.1,0-.22,0-.36-.02-.13-.01-.23-.03-.29-.05v-.7c.06.01.14.02.25.03s.19.02.27.02c.42,0,.72-.12.9-.36.18-.24.27-.65.27-1.21v-8.59h.83v8.58Zm-.91-11.53c.13-.13.3-.2.49-.2.2,0,.37.07.5.2s.2.3.2.5-.07.36-.2.49c-.14.13-.3.2-.5.2s-.36-.07-.49-.2-.2-.3-.2-.49c0-.2.07-.37.2-.5Z" style="fill:#fff; stroke-width:0px;"/><path d="m47.42,83.71c-.5-.36-.82-.82-.97-1.36h-.06c-.09.32-.26.63-.5.92-.24.29-.56.53-.94.71s-.84.28-1.38.28c-.8,0-1.45-.22-1.94-.66-.49-.44-.74-1.03-.74-1.77s.25-1.31.74-1.71c.49-.41,1.19-.61,2.08-.61h2.37v-1.04c0-.43-.09-.78-.28-1.06s-.44-.47-.75-.6c-.31-.13-.65-.2-1.02-.2-.44,0-.8.06-1.08.18-.28.12-.49.28-.64.46-.14.19-.24.37-.29.57h-.81c.02-.29.1-.55.24-.79.14-.24.33-.44.57-.62.24-.18.53-.31.88-.41s.73-.14,1.16-.14c.37,0,.72.05,1.06.16.34.1.64.26.9.48.26.22.45.49.57.81h.07c.23-.48.58-.85,1.05-1.09s.99-.36,1.56-.36c.63,0,1.18.14,1.66.43.47.29.84.7,1.1,1.25.26.55.39,1.21.39,2v.66h-5.52v.57c0,.56.1,1.05.3,1.45.2.41.48.72.85.94.37.22.81.33,1.31.33.44,0,.81-.07,1.11-.21s.54-.31.71-.52.27-.41.32-.62h.87c-.03.21-.1.44-.23.68-.13.24-.32.47-.56.69-.24.22-.55.39-.92.52-.37.13-.8.2-1.29.2-.8,0-1.45-.18-1.95-.54Zm-2.52-.47c.36-.18.64-.44.86-.76.21-.32.32-.7.32-1.13v-1.15h-2.36c-.68,0-1.19.15-1.51.45-.32.3-.48.68-.48,1.14,0,.55.2.98.59,1.27.39.3.86.45,1.4.45.44,0,.83-.09,1.19-.27Zm2.67-5.9c-.44.5-.66,1.17-.66,2.03v.16h4.69v-.12c0-.9-.21-1.59-.62-2.08-.41-.49-.98-.74-1.7-.74s-1.27.25-1.71.74Z" style="fill:#fff; stroke-width:0px;"/><path d="m55.09,72.89h.83v11.22h-.83v-11.22Z" style="fill:#fff; stroke-width:0px;"/><path d="m61.12,84.02c-.34-.16-.62-.36-.83-.6-.21-.24-.37-.49-.47-.73h-.05v4.07h-.82v-10.77h.79v1.5h.05c.06-.16.15-.34.29-.53.13-.19.31-.37.52-.54.21-.17.47-.3.77-.41.3-.1.64-.16,1.03-.16.61,0,1.15.14,1.61.42s.83.67,1.09,1.18.39,1.11.39,1.81v1.56c0,.73-.14,1.36-.41,1.87-.28.51-.65.9-1.13,1.17s-1.01.39-1.59.39c-.48,0-.89-.08-1.23-.24Zm2.37-.83c.36-.21.65-.53.86-.96.21-.43.32-.96.32-1.6v-1.15c0-.61-.1-1.14-.31-1.56-.2-.43-.49-.75-.85-.97-.36-.22-.78-.33-1.26-.33-.52,0-.97.12-1.34.36-.37.24-.65.57-.85.99-.2.42-.29.88-.29,1.39v1.48c0,.51.1.97.31,1.38.21.41.5.73.88.96.38.23.81.35,1.31.35.45,0,.85-.11,1.22-.32Z" style="fill:#fff; stroke-width:0px;"/><path d="m69.19,83.82c-.49-.29-.87-.7-1.13-1.25-.26-.54-.4-1.19-.4-1.93v-1.09c0-.78.14-1.45.41-2,.27-.55.65-.97,1.13-1.25s1.04-.43,1.66-.43,1.19.14,1.67.43.86.7,1.13,1.25c.27.55.41,1.21.41,2v.66h-5.59v.45c0,.88.22,1.57.65,2.08.43.51,1.04.77,1.82.77.44,0,.81-.07,1.12-.21.31-.14.55-.31.72-.52.17-.21.27-.41.31-.62h.86c-.03.21-.1.44-.23.69-.13.24-.32.47-.56.69-.25.21-.55.39-.92.52s-.8.2-1.29.2c-.69,0-1.28-.14-1.77-.43Zm4.06-4.28v-.09c0-.59-.1-1.1-.29-1.53-.2-.43-.47-.75-.83-.98-.36-.23-.78-.34-1.26-.34s-.89.11-1.25.34c-.36.23-.63.55-.83.98-.2.43-.3.94-.3,1.53v.09h4.76Z" style="fill:#fff; stroke-width:0px;"/><path d="m76.68,76h.83v1.46h.05c.06-.22.18-.45.36-.7.18-.24.43-.45.75-.63.33-.17.74-.26,1.24-.26.14,0,.25,0,.36.02.1.01.18.02.24.03v.78c-.05-.01-.14-.02-.26-.04-.12-.02-.26-.02-.43-.02-.44,0-.84.09-1.19.28-.35.19-.62.46-.82.82-.2.36-.3.8-.3,1.32v5.06h-.83v-8.12Z" style="fill:#fff; stroke-width:0px;"/><path d="m90.05,76.1c.35.16.63.36.84.6.22.24.37.48.45.73h.05v-4.53h.83v11.22h-.8v-1.5h-.05c-.04.16-.13.34-.26.52s-.3.36-.52.53c-.22.17-.48.31-.78.42-.31.11-.65.17-1.04.17-.61,0-1.15-.14-1.61-.41-.47-.28-.83-.67-1.1-1.17-.27-.51-.4-1.1-.4-1.79v-1.65c0-.72.14-1.34.42-1.83.28-.5.66-.88,1.13-1.14s1-.4,1.59-.4c.48,0,.9.08,1.25.24Zm-2.38.82c-.36.21-.64.53-.86.95-.21.42-.32.95-.32,1.57v1.23c0,.59.1,1.1.31,1.53.21.42.49.75.85.97s.78.33,1.24.33c.53,0,.97-.12,1.34-.37s.65-.58.85-.99c.2-.42.3-.88.3-1.38v-1.48c0-.51-.11-.96-.32-1.36-.21-.4-.51-.72-.88-.96-.38-.23-.82-.35-1.32-.35-.44,0-.84.11-1.2.32Z" style="fill:#fff; stroke-width:0px;"/><path d="m95.28,73.05c.13-.13.3-.2.49-.2s.36.07.5.2.2.3.2.5-.07.36-.2.49-.3.2-.5.2-.36-.07-.49-.2-.2-.3-.2-.49.07-.36.2-.5Zm.08,2.95h.82v8.12h-.82v-8.12Z" style="fill:#fff; stroke-width:0px;"/><path d="m103.94,85.65c.42-.4.63-.95.63-1.63v-1.67h-.05c-.06.14-.15.3-.27.48s-.29.35-.49.51c-.2.16-.45.3-.74.4-.29.1-.62.16-1,.16-.59,0-1.12-.14-1.61-.41-.48-.27-.86-.66-1.14-1.16-.28-.5-.41-1.1-.41-1.8v-1.27c0-.74.14-1.36.43-1.86.29-.5.67-.88,1.16-1.14.48-.26,1.01-.39,1.57-.39.5,0,.93.09,1.27.26.35.17.63.38.84.63.21.24.35.47.43.69h.04v-1.45h.8v7.99c0,.48-.08.91-.23,1.29-.15.38-.37.69-.66.95-.29.26-.63.45-1.04.58s-.87.2-1.37.2c-.67,0-1.23-.11-1.66-.32s-.76-.48-.98-.81c-.22-.33-.35-.67-.38-1.02h.86c.03.22.12.44.3.65.17.21.42.39.73.53s.7.21,1.16.21c.8,0,1.41-.2,1.82-.61Zm-3.05-8.72c-.37.22-.67.54-.89.96-.22.42-.33.94-.33,1.55v.89c0,.58.11,1.08.32,1.5.22.42.51.75.88.97.37.23.79.34,1.25.34.53,0,.97-.13,1.33-.39.36-.26.64-.59.82-.99s.28-.83.28-1.29v-1.17c0-.49-.1-.94-.29-1.35-.2-.41-.48-.74-.84-.98-.36-.25-.8-.37-1.31-.37-.45,0-.87.11-1.24.32Z" style="fill:#fff; stroke-width:0px;"/><path d="m111.88,76h.83v1.37h.05c.06-.2.17-.41.33-.65.16-.23.39-.44.7-.6.31-.17.72-.25,1.22-.25.45,0,.83.08,1.16.23.32.15.58.35.78.61.2.25.33.52.41.82h.05c.08-.23.22-.48.41-.74s.46-.47.81-.65c.34-.17.76-.26,1.26-.26.78,0,1.42.22,1.91.66s.73,1.09.73,1.94v5.65h-.82v-5.43c0-.44-.08-.82-.24-1.13-.16-.31-.39-.55-.69-.71-.3-.16-.65-.24-1.05-.24-.44,0-.81.1-1.13.31-.32.21-.56.48-.73.82-.17.34-.25.71-.25,1.11v5.28h-.82v-5.39c0-.44-.08-.82-.24-1.13-.16-.32-.39-.56-.69-.74-.3-.17-.65-.26-1.06-.26-.44,0-.82.1-1.13.31-.31.21-.55.49-.71.83-.16.35-.25.73-.25,1.16v5.21h-.83v-8.12Z" style="fill:#fff; stroke-width:0px;"/><path d="m126.58,83.82c-.49-.29-.87-.7-1.13-1.25-.26-.54-.4-1.19-.4-1.93v-1.09c0-.78.14-1.45.41-2,.27-.55.65-.97,1.13-1.25s1.04-.43,1.66-.43,1.19.14,1.67.43.86.7,1.13,1.25c.27.55.41,1.21.41,2v.66h-5.59v.45c0,.88.22,1.57.65,2.08.43.51,1.04.77,1.82.77.44,0,.81-.07,1.12-.21.31-.14.55-.31.72-.52.17-.21.27-.41.31-.62h.86c-.03.21-.1.44-.23.69-.13.24-.32.47-.56.69-.25.21-.55.39-.92.52s-.8.2-1.29.2c-.69,0-1.28-.14-1.77-.43Zm4.06-4.28v-.09c0-.59-.1-1.1-.29-1.53-.2-.43-.47-.75-.83-.98-.36-.23-.78-.34-1.26-.34s-.89.11-1.25.34c-.36.23-.63.55-.83.98-.2.43-.3.94-.3,1.53v.09h4.76Z" style="fill:#fff; stroke-width:0px;"/><path d="m137.99,76.1c.35.16.63.36.84.6.22.24.37.48.45.73h.05v-4.53h.83v11.22h-.8v-1.5h-.05c-.04.16-.13.34-.26.52s-.3.36-.52.53c-.22.17-.48.31-.78.42-.31.11-.65.17-1.04.17-.61,0-1.15-.14-1.61-.41-.47-.28-.83-.67-1.1-1.17-.27-.51-.4-1.1-.4-1.79v-1.65c0-.72.14-1.34.42-1.83.28-.5.66-.88,1.13-1.14s1-.4,1.59-.4c.48,0,.9.08,1.25.24Zm-2.38.82c-.36.21-.64.53-.86.95-.21.42-.32.95-.32,1.57v1.23c0,.59.1,1.1.31,1.53.21.42.49.75.85.97s.78.33,1.24.33c.53,0,.97-.12,1.34-.37s.65-.58.85-.99c.2-.42.3-.88.3-1.38v-1.48c0-.51-.11-.96-.32-1.36-.21-.4-.51-.72-.88-.96-.38-.23-.82-.35-1.32-.35-.44,0-.84.11-1.2.32Z" style="fill:#fff; stroke-width:0px;"/><path d="m150.75,76.1c.35.16.63.36.84.6.22.24.37.48.45.73h.05v-4.53h.83v11.22h-.8v-1.5h-.05c-.04.16-.13.34-.26.52s-.3.36-.52.53c-.22.17-.48.31-.78.42-.31.11-.65.17-1.04.17-.61,0-1.15-.14-1.61-.41-.47-.28-.83-.67-1.1-1.17-.27-.51-.4-1.1-.4-1.79v-1.65c0-.72.14-1.34.42-1.83.28-.5.66-.88,1.13-1.14s1-.4,1.59-.4c.48,0,.9.08,1.25.24Zm-2.38.82c-.36.21-.64.53-.86.95-.21.42-.32.95-.32,1.57v1.23c0,.59.1,1.1.31,1.53.21.42.49.75.85.97s.78.33,1.24.33c.53,0,.97-.12,1.34-.37s.65-.58.85-.99c.2-.42.3-.88.3-1.38v-1.48c0-.51-.11-.96-.32-1.36-.21-.4-.51-.72-.88-.96-.38-.23-.82-.35-1.32-.35-.44,0-.84.11-1.2.32Z" style="fill:#fff; stroke-width:0px;"/><path d="m155.98,73.05c.13-.13.3-.2.49-.2s.36.07.5.2.2.3.2.5-.07.36-.2.49-.3.2-.5.2-.36-.07-.49-.2-.2-.3-.2-.49.07-.36.2-.5Zm.08,2.95h.82v8.12h-.82v-8.12Z" style="fill:#fff; stroke-width:0px;"/><path d="m159.99,76h.83v1.57h.05c.08-.25.21-.51.41-.77.2-.26.47-.48.83-.66.35-.18.8-.27,1.35-.27.81,0,1.48.24,2,.71.52.47.78,1.17.78,2.08v5.46h-.83v-5.25c0-.45-.08-.85-.25-1.19-.17-.34-.4-.61-.71-.8-.31-.19-.69-.29-1.15-.29-.55,0-1.01.13-1.38.39-.37.26-.65.6-.83,1.02-.18.42-.27.88-.27,1.37v4.74h-.83v-8.12Z" style="fill:#fff; stroke-width:0px;"/><path d="m178.89,84.12h-.82v-1.5h-.05c-.08.24-.23.49-.44.74-.21.25-.49.47-.84.64-.35.17-.78.26-1.29.26s-1-.09-1.42-.28-.75-.47-.99-.86-.36-.9-.36-1.52v-5.6h.82v5.41c0,.46.09.85.27,1.16.18.31.42.55.74.7s.67.23,1.09.23c.52,0,.96-.12,1.33-.36.37-.24.66-.55.86-.94.2-.39.3-.79.3-1.21v-5h.82v8.12Z" style="fill:#fff; stroke-width:0px;"/><path d="m185.81,76.1c.35.16.63.36.84.6.22.24.37.48.45.73h.05v-4.53h.83v11.22h-.8v-1.5h-.05c-.04.16-.13.34-.26.52-.13.19-.3.36-.52.53-.22.17-.48.31-.78.42s-.65.17-1.04.17c-.61,0-1.15-.14-1.61-.41-.47-.28-.83-.67-1.1-1.17-.27-.51-.4-1.1-.4-1.79v-1.65c0-.72.14-1.34.42-1.83s.66-.88,1.13-1.14c.47-.26,1-.4,1.59-.4.48,0,.9.08,1.25.24Zm-2.38.82c-.36.21-.65.53-.86.95-.21.42-.32.95-.32,1.57v1.23c0,.59.1,1.1.31,1.53s.49.75.85.97c.36.22.77.33,1.24.33.53,0,.97-.12,1.34-.37s.65-.58.85-.99c.2-.42.3-.88.3-1.38v-1.48c0-.51-.11-.96-.32-1.36-.21-.4-.5-.72-.88-.96-.38-.23-.82-.35-1.32-.35-.44,0-.84.11-1.2.32Z" style="fill:#fff; stroke-width:0px;"/><path d="m191.48,76.69h-1.41v-.7h1.41v-.97c0-.73.18-1.27.53-1.61.35-.34.92-.52,1.71-.52.16,0,.33,0,.5.02.17.01.3.03.38.04v.71c-.07-.01-.19-.02-.36-.03-.17-.01-.32-.02-.45-.02-.53,0-.91.11-1.14.32-.23.21-.34.58-.34,1.12v.93h2.14v.7h-2.14v7.43h-.83v-7.43Z" style="fill:#fff; stroke-width:0px;"/><path d="m201.04,76.27c.51.27.91.67,1.21,1.2s.45,1.18.45,1.94v1.29c0,.77-.15,1.42-.45,1.95-.3.53-.7.92-1.21,1.19-.51.27-1.08.4-1.71.4s-1.2-.13-1.71-.4c-.51-.27-.91-.67-1.2-1.19-.29-.53-.44-1.17-.44-1.95v-1.3c0-.76.15-1.4.45-1.93s.7-.93,1.2-1.21c.51-.28,1.07-.41,1.7-.41s1.2.14,1.71.41Zm-3.01.68c-.38.23-.68.56-.9.99-.22.43-.33.96-.33,1.58v1.09c0,.62.11,1.15.32,1.58.21.43.51.76.89.98.38.22.82.34,1.32.34s.94-.11,1.32-.33c.38-.22.67-.55.89-.98.22-.43.32-.96.32-1.58v-1.09c0-.61-.11-1.14-.33-1.58-.22-.44-.52-.77-.9-1-.38-.23-.82-.34-1.31-.34s-.92.11-1.3.34Z" style="fill:#fff; stroke-width:0px;"/><path d="m205.31,76h.83v1.46h.05c.06-.22.18-.45.36-.7.18-.24.43-.45.75-.63.33-.17.74-.26,1.24-.26.13,0,.25,0,.36.02.1.01.18.02.24.03v.78c-.05-.01-.14-.02-.26-.04-.12-.02-.26-.02-.43-.02-.44,0-.84.09-1.19.28-.35.19-.62.46-.82.82-.2.36-.3.8-.3,1.32v5.06h-.83v-8.12Z" style="fill:#fff; stroke-width:0px;"/><path d="m215.01,76.1c.35.16.63.36.84.6.22.24.37.48.45.73h.05v-4.53h.83v11.22h-.8v-1.5h-.05c-.04.16-.13.34-.26.52-.13.19-.3.36-.52.53-.22.17-.48.31-.78.42s-.65.17-1.04.17c-.61,0-1.15-.14-1.61-.41-.47-.28-.83-.67-1.1-1.17-.27-.51-.4-1.1-.4-1.79v-1.65c0-.72.14-1.34.42-1.83s.66-.88,1.13-1.14c.47-.26,1-.4,1.59-.4.48,0,.9.08,1.25.24Zm-2.38.82c-.36.21-.65.53-.86.95-.21.42-.32.95-.32,1.57v1.23c0,.59.1,1.1.31,1.53s.49.75.85.97c.36.22.77.33,1.24.33.53,0,.97-.12,1.34-.37s.65-.58.85-.99c.2-.42.3-.88.3-1.38v-1.48c0-.51-.11-.96-.32-1.36-.21-.4-.5-.72-.88-.96-.38-.23-.82-.35-1.32-.35-.44,0-.84.11-1.2.32Z" style="fill:#fff; stroke-width:0px;"/><path d="m220.2,76h.83v1.46h.05c.06-.22.18-.45.36-.7.18-.24.43-.45.75-.63.33-.17.74-.26,1.24-.26.13,0,.25,0,.36.02.1.01.18.02.24.03v.78c-.05-.01-.14-.02-.26-.04-.12-.02-.26-.02-.43-.02-.44,0-.84.09-1.19.28-.35.19-.62.46-.82.82-.2.36-.3.8-.3,1.32v5.06h-.83v-8.12Z" style="fill:#fff; stroke-width:0px;"/><path d="m226.04,73.05c.13-.13.3-.2.49-.2s.36.07.5.2.2.3.2.5-.07.36-.2.49-.3.2-.5.2-.36-.07-.49-.2-.2-.3-.2-.49.07-.36.2-.5Zm.08,2.95h.82v8.12h-.82v-8.12Z" style="fill:#fff; stroke-width:0px;"/><path d="m230.06,76h.83v1.57h.05c.08-.25.21-.51.41-.77.2-.26.47-.48.83-.66.35-.18.8-.27,1.35-.27.81,0,1.48.24,2,.71.52.47.78,1.17.78,2.08v5.46h-.83v-5.25c0-.45-.08-.85-.25-1.19-.17-.34-.4-.61-.71-.8-.31-.19-.69-.29-1.15-.29-.55,0-1.01.13-1.38.39-.37.26-.65.6-.83,1.02-.18.42-.27.88-.27,1.37v4.74h-.83v-8.12Z" style="fill:#fff; stroke-width:0px;"/><path d="m243.81,85.65c.42-.4.63-.95.63-1.63v-1.67h-.05c-.06.14-.15.3-.27.48s-.29.35-.49.51-.45.3-.74.4c-.29.1-.62.16-1,.16-.59,0-1.12-.14-1.61-.41-.48-.27-.86-.66-1.14-1.16s-.41-1.1-.41-1.8v-1.27c0-.74.14-1.36.43-1.86.29-.5.67-.88,1.16-1.14.48-.26,1.01-.39,1.58-.39.5,0,.92.09,1.27.26.35.17.63.38.84.63.21.24.35.47.43.69h.04v-1.45h.8v7.99c0,.48-.08.91-.23,1.29-.15.38-.37.69-.66.95-.29.26-.63.45-1.04.58s-.87.2-1.37.2c-.67,0-1.23-.11-1.66-.32-.43-.21-.76-.48-.98-.81s-.35-.67-.38-1.02h.86c.03.22.12.44.3.65.17.21.42.39.74.53.32.14.7.21,1.16.21.8,0,1.41-.2,1.83-.61Zm-3.05-8.72c-.37.22-.67.54-.89.96-.22.42-.33.94-.33,1.55v.89c0,.58.11,1.08.32,1.5.22.42.51.75.88.97.37.23.79.34,1.25.34.53,0,.97-.13,1.33-.39.36-.26.64-.59.82-.99.19-.4.28-.83.28-1.29v-1.17c0-.49-.1-.94-.29-1.35-.2-.41-.48-.74-.84-.98-.37-.25-.8-.37-1.31-.37-.45,0-.87.11-1.24.32Z" style="fill:#fff; stroke-width:0px;"/><path d="m249.35,83.82c-.49-.29-.87-.7-1.13-1.25-.26-.54-.39-1.19-.39-1.93v-1.09c0-.78.14-1.45.41-2s.65-.97,1.13-1.25c.48-.29,1.04-.43,1.66-.43s1.19.14,1.67.43c.48.29.86.7,1.13,1.25s.41,1.21.41,2v.66h-5.59v.45c0,.88.22,1.57.65,2.08s1.04.77,1.82.77c.44,0,.81-.07,1.12-.21s.55-.31.71-.52c.17-.21.27-.41.31-.62h.86c-.03.21-.1.44-.23.69-.13.24-.32.47-.56.69-.25.21-.55.39-.92.52s-.8.2-1.29.2c-.69,0-1.28-.14-1.77-.43Zm4.07-4.28v-.09c0-.59-.1-1.1-.29-1.53-.2-.43-.47-.75-.83-.98-.36-.23-.78-.34-1.26-.34s-.89.11-1.25.34c-.36.23-.63.55-.83.98-.2.43-.3.94-.3,1.53v.09h4.76Z" style="fill:#fff; stroke-width:0px;"/><path d="m256.84,76h.83v1.46h.05c.06-.22.18-.45.36-.7.18-.24.43-.45.75-.63.33-.17.74-.26,1.24-.26.13,0,.25,0,.36.02.1.01.18.02.24.03v.78c-.05-.01-.14-.02-.26-.04-.12-.02-.26-.02-.43-.02-.44,0-.84.09-1.19.28-.35.19-.62.46-.82.82-.2.36-.3.8-.3,1.32v5.06h-.83v-8.12Z" style="fill:#fff; stroke-width:0px;"/></g></svg>