<svg id="Layer_2" xmlns="http://www.w3.org/2000/svg" viewBox="0 0 274.49 54.91"><g id="Layer_1-2"><path d="m9.59,20.73c3.43,0,6.25.67,8.47,2,2.22,1.33,3.87,3.26,4.94,5.77,1.08,2.52,1.61,5.56,1.61,9.14s-.53,6.58-1.6,9.1c-1.07,2.53-2.71,4.46-4.92,5.79-2.21,1.33-5.05,2-8.51,2H0V20.73h9.59Zm-6.93,31.35h6.88c2.12,0,3.96-.32,5.53-.96,1.57-.64,2.85-1.58,3.85-2.82,1-1.24,1.75-2.76,2.24-4.55.49-1.79.73-3.84.73-6.16,0-3.03-.44-5.63-1.33-7.79s-2.24-3.81-4.05-4.96c-1.81-1.14-4.14-1.71-6.97-1.71H2.66v28.94Z" style="fill:#c09f53; stroke-width:0px;"/><path d="m52.78,54.54h-19.55V20.73h19.55v2.43h-16.87v12.84h15.97v2.41h-15.97v13.66h16.87v2.46Z" style="fill:#c09f53; stroke-width:0px;"/><path d="m57.63,20.73h2.98l10.63,30.6h.17l10.73-30.6h2.98l-12.44,33.81h-2.73l-12.32-33.81Z" style="fill:#c09f53; stroke-width:0px;"/><path d="m113.21,54.54v-16.47h-18.93v16.47h-2.66V20.73h2.66v14.93h18.93v-14.93h2.66v33.81h-2.66Z" style="fill:#c09f53; stroke-width:0px;"/><path d="m145.68,54.54h-19.55V20.73h19.55v2.43h-16.87v12.84h15.97v2.41h-15.97v13.66h16.87v2.46Z" style="fill:#c09f53; stroke-width:0px;"/><path d="m173.35,54.54h-19.23V20.73h2.66v31.37h16.57v2.43Z" style="fill:#c09f53; stroke-width:0px;"/><path d="m197.18,21.96c1.57.82,2.77,1.99,3.61,3.5s1.27,3.31,1.27,5.38-.42,3.79-1.27,5.3-2.05,2.69-3.61,3.53c-1.56.84-3.46,1.25-5.68,1.25h-8.62v13.61h-2.68V20.73h11.3c2.22,0,4.11.41,5.68,1.23Zm.1,3.22c-1.38-1.34-3.34-2.01-5.87-2.01h-8.52v15.33h8.52c1.71,0,3.15-.31,4.32-.92s2.07-1.49,2.7-2.63.93-2.51.93-4.1c0-2.43-.69-4.32-2.07-5.66Z" style="fill:#c09f53; stroke-width:0px;"/><path d="m204.72,50.64c.48-.5,1.06-.75,1.74-.75.73,0,1.34.24,1.83.73.49.49.73,1.1.73,1.83s-.25,1.28-.75,1.75c-.5.47-1.1.71-1.81.71s-1.26-.24-1.74-.71c-.48-.47-.72-1.06-.72-1.75s.24-1.32.72-1.81Z" style="fill:#c09f53; stroke-width:0px;"/><path d="m227.72,20.73c3.43,0,6.25.67,8.47,2,2.22,1.33,3.87,3.26,4.94,5.77,1.08,2.52,1.61,5.56,1.61,9.14s-.53,6.58-1.6,9.1c-1.07,2.53-2.71,4.46-4.92,5.79-2.21,1.33-5.05,2-8.51,2h-9.59V20.73h9.59Zm-6.93,31.35h6.88c2.12,0,3.96-.32,5.53-.96,1.57-.64,2.85-1.58,3.85-2.82,1-1.24,1.75-2.76,2.24-4.55.49-1.79.73-3.84.73-6.16,0-3.03-.44-5.63-1.33-7.79s-2.24-3.81-4.05-4.96c-1.81-1.14-4.14-1.71-6.97-1.71h-6.88v28.94Z" style="fill:#c09f53; stroke-width:0px;"/><path d="m260.26,35.54l14.23,19h-3.43l-12.79-17.19-4.25,4.52v12.67h-2.66V20.73h2.66v17.61h.1l16.32-17.61h3.28l-13.46,14.8Z" style="fill:#c09f53; stroke-width:0px;"/><path d="m.76,11.31L4.61.6h.6l3.85,10.71h-.61l-1.28-3.65H2.65l-1.28,3.65h-.6ZM4.89,1.29l-2.09,5.88h4.19L4.93,1.29h-.04Z" style="stroke-width:0px;"/><path d="m15.09,11.31V.6h.57v10.71h-.57Z" style="stroke-width:0px;"/><path d="m18.96,3.17h.56v1.64h.03c.09-.28.24-.55.45-.82s.5-.5.87-.68c.37-.18.82-.28,1.36-.28.8,0,1.47.25,1.99.74.53.49.79,1.21.79,2.14v5.4h-.56v-5.3c0-.46-.09-.88-.26-1.25s-.43-.67-.77-.88c-.34-.22-.76-.32-1.25-.32-.58,0-1.07.14-1.46.41-.4.27-.69.63-.89,1.07-.2.44-.3.9-.3,1.39v4.89h-.56V3.17Z" style="stroke-width:0px;"/><path d="m28.32,1.2h.56v1.98h2.29v.48h-2.29v5.85c0,.52.11.87.34,1.07.23.2.62.3,1.19.3.12,0,.27,0,.46-.02.19-.02.33-.03.43-.04v.5c-.11.02-.26.03-.46.04-.19.01-.35.02-.47.02-.52,0-.93-.06-1.23-.19s-.51-.32-.63-.6c-.12-.28-.19-.65-.19-1.1V3.66h-1.61v-.48h1.61v-1.98Z" style="stroke-width:0px;"/><path d="m33.74,10.8c-.49-.43-.74-1.03-.74-1.78,0-.67.23-1.21.7-1.63.47-.42,1.15-.63,2.07-.63h2.54v-1.2c0-.7-.21-1.21-.62-1.53s-.95-.48-1.61-.48c-.49,0-.89.07-1.19.22-.31.15-.53.33-.69.54-.15.21-.25.42-.27.61h-.56c.02-.24.09-.48.22-.7.12-.23.3-.43.53-.61.23-.18.51-.32.84-.43.33-.11.72-.16,1.16-.16.55,0,1.03.09,1.44.27.41.18.73.45.97.81.23.36.35.81.35,1.36v5.84h-.55v-1.36h-.04c-.06.16-.19.36-.39.6-.21.24-.49.45-.85.63-.36.18-.82.27-1.36.27-.79,0-1.43-.22-1.92-.65Zm3.26-.17c.39-.2.7-.47.94-.83s.36-.77.36-1.25v-1.29h-2.54c-.75,0-1.3.16-1.65.49-.35.33-.52.75-.52,1.26,0,.59.2,1.05.6,1.4s.91.52,1.52.52c.47,0,.89-.1,1.28-.3Z" style="stroke-width:0px;"/><path d="m41.87,4.01c.24-.33.56-.57.97-.73.41-.16.87-.24,1.38-.24.68,0,1.22.12,1.62.35.4.23.69.51.86.84.17.33.26.64.26.93h-.55c0-.21-.07-.43-.21-.68s-.36-.47-.68-.66c-.32-.19-.75-.28-1.3-.28s-1.08.14-1.5.41c-.42.27-.63.68-.63,1.22,0,.25.05.47.15.65.1.18.24.33.43.47.19.13.42.25.69.35.27.1.59.2.94.29.5.13.97.27,1.4.42.43.16.77.37,1.03.64.26.27.39.66.39,1.17s-.14.95-.41,1.29c-.28.34-.64.59-1.08.76-.45.16-.93.24-1.46.24-.73,0-1.3-.12-1.73-.35s-.74-.52-.93-.86c-.19-.34-.28-.67-.28-.99h.56c0,.23.07.47.22.73.15.26.4.49.74.68.34.19.82.29,1.43.29.42,0,.81-.06,1.17-.19s.65-.32.87-.57.33-.58.33-.97-.12-.7-.35-.92c-.23-.22-.53-.39-.9-.51-.37-.12-.75-.23-1.15-.33-.54-.14-1-.29-1.4-.46s-.7-.4-.91-.69c-.22-.28-.32-.65-.32-1.1s.12-.86.35-1.19Z" style="stroke-width:0px;"/><path d="m50.11,1.2h.56v1.98h2.29v.48h-2.29v5.85c0,.52.11.87.34,1.07.23.2.62.3,1.19.3.12,0,.27,0,.46-.02.19-.02.33-.03.43-.04v.5c-.11.02-.26.03-.46.04-.19.01-.35.02-.47.02-.52,0-.93-.06-1.23-.19s-.51-.32-.63-.6c-.12-.28-.19-.65-.19-1.1V3.66h-1.61v-.48h1.61v-1.98Z" style="stroke-width:0px;"/><path d="m56.39,11.02c-.48-.29-.86-.71-1.12-1.26-.26-.55-.39-1.22-.39-2v-.91c0-.84.13-1.54.4-2.11.27-.56.64-.99,1.11-1.27.48-.28,1.02-.43,1.64-.43s1.17.14,1.64.43c.47.28.84.71,1.11,1.28.27.57.4,1.27.4,2.1v.43h-5.74v.47c0,1.03.24,1.82.73,2.37.48.55,1.13.82,1.95.82.52,0,.95-.09,1.29-.26.34-.17.6-.38.78-.63.18-.25.28-.5.31-.73h.58c-.02.22-.09.46-.22.71s-.31.48-.55.7c-.24.22-.54.39-.9.53-.36.14-.79.2-1.28.2-.67,0-1.25-.14-1.73-.43Zm4.23-4.23v-.05c0-.68-.11-1.26-.32-1.73-.22-.48-.52-.84-.9-1.09s-.84-.37-1.36-.37-.97.12-1.36.37c-.39.25-.69.61-.91,1.09-.22.48-.32,1.06-.32,1.73v.05h5.18Z" style="stroke-width:0px;"/><path d="m63.93,0h.55v11.31h-.55V0Z" style="stroke-width:0px;"/><path d="m67.75,0h.55v11.31h-.55V0Z" style="stroke-width:0px;"/><path d="m71.67,10.8c-.49-.43-.74-1.03-.74-1.78,0-.67.23-1.21.7-1.63.47-.42,1.15-.63,2.07-.63h2.54v-1.2c0-.7-.21-1.21-.62-1.53s-.95-.48-1.61-.48c-.49,0-.89.07-1.19.22-.31.15-.53.33-.69.54-.15.21-.25.42-.27.61h-.56c.02-.24.09-.48.22-.7.12-.23.3-.43.53-.61.23-.18.51-.32.84-.43.33-.11.72-.16,1.16-.16.55,0,1.03.09,1.44.27.41.18.73.45.97.81.23.36.35.81.35,1.36v5.84h-.55v-1.36h-.04c-.06.16-.19.36-.39.6-.21.24-.49.45-.85.63-.36.18-.82.27-1.36.27-.79,0-1.43-.22-1.92-.65Zm3.26-.17c.39-.2.7-.47.94-.83s.36-.77.36-1.25v-1.29h-2.54c-.75,0-1.3.16-1.65.49-.35.33-.52.75-.52,1.26,0,.59.2,1.05.6,1.4s.91.52,1.52.52c.47,0,.89-.1,1.28-.3Z" style="stroke-width:0px;"/><path d="m79.75,3.17h.56v1.62h.03c.05-.24.17-.5.35-.76.18-.27.45-.5.78-.69.34-.19.76-.29,1.27-.29.18,0,.33,0,.44.02.12.02.2.03.24.04v.54s-.12-.03-.25-.05-.29-.03-.48-.03c-.42,0-.81.1-1.18.29s-.66.49-.88.89-.33.92-.33,1.54v5.01h-.56V3.17Z" style="stroke-width:0px;"/><path d="m89.1,8.65c.02.24.08.5.19.78s.29.54.53.78.56.44.95.6c.39.15.87.23,1.45.23.61,0,1.14-.1,1.6-.31.45-.21.81-.49,1.06-.85.25-.36.38-.77.38-1.23,0-.69-.22-1.21-.67-1.54-.44-.33-1.08-.61-1.92-.84l-1.34-.35c-.52-.14-.96-.32-1.32-.56-.37-.24-.65-.53-.84-.88-.19-.35-.29-.77-.29-1.27,0-.56.14-1.06.41-1.49.28-.43.67-.77,1.17-1.01.51-.24,1.11-.37,1.82-.37s1.34.12,1.83.37c.49.25.86.57,1.12.97.26.4.39.82.39,1.28h-.58c-.02-.32-.12-.64-.31-.97s-.49-.59-.89-.81c-.4-.22-.92-.32-1.57-.32-.87,0-1.56.22-2.06.65-.5.43-.75,1-.75,1.69,0,.63.18,1.1.55,1.42.37.32.9.58,1.59.78l1.28.35c.64.17,1.18.38,1.61.61.43.23.76.52.99.88.23.35.34.81.34,1.37,0,.59-.16,1.11-.47,1.56-.31.45-.74.79-1.29,1.03-.55.24-1.19.36-1.93.36-.65,0-1.21-.09-1.67-.28-.46-.18-.83-.42-1.12-.72-.29-.29-.5-.61-.63-.95-.14-.34-.21-.66-.21-.97h.58Z" style="stroke-width:0px;"/><path d="m102.94,3.44c.5.27.9.68,1.2,1.21.3.53.45,1.19.45,1.96v1.28c0,.78-.15,1.44-.45,1.97-.3.53-.7.92-1.2,1.19-.5.26-1.06.39-1.67.39s-1.17-.13-1.67-.4c-.5-.27-.9-.66-1.19-1.19-.29-.53-.44-1.18-.44-1.95v-1.29c0-.78.15-1.44.44-1.97s.69-.93,1.19-1.2,1.05-.4,1.67-.4,1.17.14,1.67.41Zm-3.05.45c-.41.24-.74.59-.98,1.06-.24.47-.36,1.05-.36,1.74v1.12c0,.69.12,1.26.36,1.73s.56.81.97,1.04c.41.23.88.35,1.41.35s.99-.12,1.4-.35c.41-.23.74-.58.98-1.04.24-.46.36-1.04.36-1.73v-1.12c0-.68-.12-1.26-.36-1.73-.24-.47-.57-.83-.98-1.07-.42-.24-.88-.36-1.4-.36s-.98.12-1.39.36Z" style="stroke-width:0px;"/><path d="m107.34,0h.55v11.31h-.55V0Z" style="stroke-width:0px;"/><path d="m117,11.31h-.56v-1.62h-.04c-.08.26-.24.52-.46.8s-.52.51-.89.69c-.37.18-.82.28-1.34.28s-.98-.1-1.4-.3c-.42-.2-.75-.5-.99-.9-.24-.4-.37-.92-.37-1.54V3.17h.55v5.46c0,.47.09.87.28,1.22.18.35.45.61.78.8s.74.28,1.19.28c.58,0,1.07-.14,1.47-.42.4-.28.7-.64.91-1.08.21-.44.31-.9.31-1.38V3.17h.55v8.14Z" style="stroke-width:0px;"/><path d="m120.44,1.2h.56v1.98h2.29v.48h-2.29v5.85c0,.52.11.87.34,1.07.23.2.62.3,1.19.3.12,0,.27,0,.46-.02.19-.02.33-.03.43-.04v.5c-.11.02-.26.03-.46.04-.19.01-.35.02-.47.02-.52,0-.93-.06-1.23-.19s-.51-.32-.63-.6c-.12-.28-.19-.65-.19-1.1V3.66h-1.61v-.48h1.61v-1.98Z" style="stroke-width:0px;"/><path d="m125.69.39c.1-.1.23-.15.39-.15s.27.05.38.15c.1.1.16.23.16.38s-.05.27-.16.38c-.11.11-.23.16-.38.16s-.28-.05-.39-.16-.16-.24-.16-.38.05-.28.16-.38Zm.1,2.78h.56v8.14h-.56V3.17Z" style="stroke-width:0px;"/><path d="m134.1,3.44c.5.27.9.68,1.2,1.21.3.53.45,1.19.45,1.96v1.28c0,.78-.15,1.44-.45,1.97-.3.53-.7.92-1.2,1.19-.5.26-1.06.39-1.67.39s-1.17-.13-1.67-.4c-.5-.27-.9-.66-1.19-1.19-.29-.53-.44-1.18-.44-1.95v-1.29c0-.78.15-1.44.44-1.97s.69-.93,1.19-1.2,1.05-.4,1.67-.4,1.17.14,1.67.41Zm-3.05.45c-.41.24-.74.59-.98,1.06-.24.47-.36,1.05-.36,1.74v1.12c0,.69.12,1.26.36,1.73s.56.81.97,1.04c.41.23.88.35,1.41.35s.99-.12,1.4-.35c.41-.23.74-.58.98-1.04.24-.46.36-1.04.36-1.73v-1.12c0-.68-.12-1.26-.36-1.73-.24-.47-.57-.83-.98-1.07-.42-.24-.88-.36-1.4-.36s-.98.12-1.39.36Z" style="stroke-width:0px;"/><path d="m138.37,3.17h.56v1.64h.03c.09-.28.24-.55.45-.82s.5-.5.87-.68c.37-.18.82-.28,1.36-.28.8,0,1.47.25,1.99.74.53.49.79,1.21.79,2.14v5.4h-.56v-5.3c0-.46-.09-.88-.26-1.25s-.43-.67-.77-.88c-.34-.22-.76-.32-1.25-.32-.58,0-1.07.14-1.46.41-.4.27-.69.63-.89,1.07-.2.44-.3.9-.3,1.39v4.89h-.56V3.17Z" style="stroke-width:0px;"/><path d="m147.4,4.01c.24-.33.56-.57.97-.73.41-.16.87-.24,1.38-.24.68,0,1.22.12,1.62.35.4.23.69.51.86.84.17.33.26.64.26.93h-.55c0-.21-.07-.43-.21-.68s-.36-.47-.68-.66c-.32-.19-.75-.28-1.3-.28s-1.08.14-1.5.41c-.42.27-.63.68-.63,1.22,0,.25.05.47.15.65.1.18.24.33.43.47.19.13.42.25.69.35.27.1.59.2.94.29.5.13.97.27,1.4.42.43.16.77.37,1.03.64.26.27.39.66.39,1.17s-.14.95-.41,1.29c-.28.34-.64.59-1.08.76-.45.16-.93.24-1.46.24-.73,0-1.3-.12-1.73-.35s-.74-.52-.93-.86c-.19-.34-.28-.67-.28-.99h.56c0,.23.07.47.22.73.15.26.4.49.74.68.34.19.82.29,1.43.29.42,0,.81-.06,1.17-.19s.65-.32.87-.57.33-.58.33-.97-.12-.7-.35-.92c-.23-.22-.53-.39-.9-.51-.37-.12-.75-.23-1.15-.33-.54-.14-1-.29-1.4-.46s-.7-.4-.91-.69c-.22-.28-.32-.65-.32-1.1s.12-.86.35-1.19Z" style="stroke-width:0px;"/><path d="m160.72,11.15c-.37-.2-.66-.44-.86-.71s-.35-.52-.43-.74h-.03v4.22h-.56V3.17h.55v1.65h.03c.04-.13.11-.29.23-.48.12-.2.28-.4.5-.6.21-.2.48-.37.81-.5.33-.14.72-.2,1.17-.2.59,0,1.12.14,1.58.42.46.28.83.67,1.1,1.18.27.51.4,1.11.4,1.82v1.58c0,.77-.14,1.4-.43,1.91-.29.51-.67.89-1.14,1.14-.47.25-.98.38-1.52.38s-1.03-.1-1.4-.3Zm2.62-.54c.39-.22.7-.55.95-1s.36-1.03.36-1.73v-1.32c0-.65-.12-1.2-.34-1.65-.23-.45-.54-.79-.92-1.02-.39-.23-.82-.35-1.3-.35-.58,0-1.07.14-1.47.42-.4.28-.71.64-.91,1.1-.2.45-.31.94-.31,1.46v1.44c0,.56.11,1.06.33,1.51s.53.81.94,1.07c.4.26.88.39,1.42.39.45,0,.87-.11,1.25-.32Z" style="stroke-width:0px;"/><path d="m167.97,0h.55v11.31h-.55V0Z" style="stroke-width:0px;"/><path d="m171.89,10.8c-.49-.43-.74-1.03-.74-1.78,0-.67.23-1.21.7-1.63.46-.42,1.16-.63,2.07-.63h2.54v-1.2c0-.7-.21-1.21-.62-1.53s-.95-.48-1.61-.48c-.49,0-.89.07-1.19.22s-.54.33-.69.54c-.16.21-.25.42-.27.61h-.56c.02-.24.09-.48.22-.7.12-.23.3-.43.53-.61.23-.18.51-.32.84-.43.33-.11.72-.16,1.16-.16.55,0,1.03.09,1.44.27.41.18.73.45.97.81.23.36.35.81.35,1.36v5.84h-.55v-1.36h-.04c-.06.16-.19.36-.39.6-.21.24-.49.45-.85.63-.36.18-.82.27-1.36.27-.79,0-1.43-.22-1.92-.65Zm3.26-.17c.39-.2.7-.47.94-.83.24-.35.36-.77.36-1.25v-1.29h-2.54c-.75,0-1.3.16-1.65.49-.35.33-.52.75-.52,1.26,0,.59.2,1.05.6,1.4s.91.52,1.52.52c.47,0,.89-.1,1.28-.3Z" style="stroke-width:0px;"/><path d="m180.34,1.2h.56v1.98h2.29v.48h-2.29v5.85c0,.52.11.87.34,1.07.23.2.62.3,1.19.3.12,0,.27,0,.46-.02.19-.02.33-.03.42-.04v.5c-.11.02-.26.03-.46.04s-.35.02-.47.02c-.52,0-.93-.06-1.23-.19s-.51-.32-.63-.6c-.12-.28-.18-.65-.18-1.1V3.66h-1.61v-.48h1.61v-1.98Z" style="stroke-width:0px;"/><path d="m185.96,3.66h-1.44v-.48h1.44v-1.09c0-.7.17-1.22.5-1.54s.86-.49,1.59-.49c.15,0,.32,0,.5.03.18.02.31.04.4.06v.49c-.08-.01-.21-.02-.38-.04-.17-.01-.34-.02-.5-.02-.57,0-.97.12-1.2.35-.23.23-.35.62-.35,1.17v1.08h2.33v.48h-2.33v7.65h-.56V3.66Z" style="stroke-width:0px;"/><path d="m195.27,3.44c.5.27.9.68,1.2,1.21.3.53.45,1.19.45,1.96v1.28c0,.78-.15,1.44-.45,1.97-.3.53-.7.92-1.2,1.19s-1.06.39-1.67.39-1.17-.13-1.67-.4c-.5-.27-.89-.66-1.19-1.19-.29-.53-.44-1.18-.44-1.95v-1.29c0-.78.15-1.44.44-1.97s.69-.93,1.19-1.2c.5-.27,1.05-.4,1.67-.4s1.17.14,1.67.41Zm-3.05.45c-.41.24-.74.59-.98,1.06-.24.47-.36,1.05-.36,1.74v1.12c0,.69.12,1.26.36,1.73.24.46.56.81.97,1.04.41.23.88.35,1.41.35s.99-.12,1.4-.35c.41-.23.74-.58.98-1.04.24-.46.36-1.04.36-1.73v-1.12c0-.68-.12-1.26-.36-1.73-.24-.47-.57-.83-.98-1.07-.42-.24-.88-.36-1.4-.36s-.98.12-1.39.36Z" style="stroke-width:0px;"/><path d="m199.56,3.17h.56v1.62h.03c.05-.24.17-.5.35-.76.18-.27.45-.5.78-.69s.76-.29,1.27-.29c.18,0,.33,0,.44.02.12.02.2.03.24.04v.54s-.12-.03-.25-.05c-.12-.02-.29-.03-.49-.03-.42,0-.81.1-1.18.29-.37.19-.66.49-.88.89s-.33.92-.33,1.54v5.01h-.56V3.17Z" style="stroke-width:0px;"/><path d="m205.16,3.17h.56v1.43h.03c.06-.21.17-.43.34-.67.17-.24.41-.46.73-.63.32-.18.73-.27,1.23-.27.48,0,.88.08,1.22.25.33.17.6.39.8.65.2.27.33.55.4.84h.03c.05-.21.17-.45.35-.73.18-.27.45-.51.8-.72s.79-.31,1.32-.31c.75,0,1.38.22,1.87.67.5.45.75,1.12.75,2.01v5.6h-.55v-5.45c0-.52-.09-.95-.27-1.29-.18-.34-.43-.6-.75-.76-.32-.17-.68-.25-1.09-.25-.49,0-.91.12-1.25.35-.34.23-.59.53-.77.9-.17.37-.26.76-.26,1.17v5.34h-.56v-5.42c0-.5-.09-.92-.26-1.27-.17-.35-.41-.61-.73-.8s-.69-.28-1.12-.28c-.5,0-.92.12-1.25.35-.34.23-.59.54-.76.93s-.26.81-.26,1.27v5.21h-.56V3.17Z" style="stroke-width:0px;"/></g></svg>