<?xml version="1.0" encoding="UTF-8"?><svg id="Layer_2" xmlns="http://www.w3.org/2000/svg" viewBox="0 0 96.94 101.18"><g id="Layer_1-2"><path d="m96.85,60.66c-.46-2.32-1.87-3.97-3.11-5.44-.8-.94-1.56-1.83-1.84-2.67-.08-.25.05-.53.81-1.64,1.31-1.92,3.29-4.83,3.29-10.72,0-2.73-.96-4.99-2.77-6.53-3.64-3.1-9.59-2.42-11.32-2.13-.06,0-.11.01-.17.01h-7.71c-.51,0-.95-.37-1.04-.87-1.04-5.64-3.66-15.99-9.57-21.9C55.98,1.33,50.92-1.27,47.48.57c-4.12,2.21-3.34,9.53-2.5,13.7.02.08.02.16.02.24-.06,6.3-2.39,20.86-22.35,22.84-.74-1.86-2.55-3.17-4.67-3.17H5.02c-2.77,0-5.02,2.25-5.02,5.02v56.97c0,2.77,2.25,5.02,5.02,5.02h12.97c2.42,0,4.44-1.72,4.91-4h55.1c8.92,0,15.03-12.15,16.79-19.8.19-.8.16-1.67-.08-2.49l-1.43-5.02c-.08-.27-.04-.57.1-.82l2.88-5.04h0c.6-1.06.81-2.25.59-3.36Z" style="stroke-width:0px;"/></g></svg>