<?xml version="1.0" encoding="UTF-8"?><svg id="Layer_2" xmlns="http://www.w3.org/2000/svg" viewBox="0 0 96.94 101.18"><g id="Layer_1-2"><path d="m96.85,60.66c-.46-2.32-1.87-3.97-3.11-5.44-.8-.94-1.56-1.83-1.84-2.67-.08-.25.05-.53.81-1.64,1.31-1.92,3.29-4.83,3.29-10.72,0-2.73-.96-4.99-2.77-6.53-3.64-3.1-9.59-2.41-11.33-2.13-.05,0-.1.01-.16.01h-7.71c-.51,0-.95-.37-1.04-.87-1.04-5.64-3.66-15.99-9.57-21.9C55.98,1.33,50.92-1.27,47.48.57c-4.13,2.21-3.34,9.53-2.5,13.7.02.08.02.16.02.24-.06,6.3-2.39,20.86-22.35,22.84-.74-1.86-2.55-3.17-4.67-3.17H5.02c-2.77,0-5.02,2.25-5.02,5.02v56.97c0,2.77,2.25,5.02,5.02,5.02h12.97c2.42,0,4.44-1.72,4.91-4h55.1c8.92,0,15.03-12.15,16.79-19.8.18-.81.16-1.67-.08-2.49l-1.43-5.02c-.08-.27-.04-.57.1-.81l2.88-5.04h0c.6-1.06.81-2.25.59-3.35ZM19,96.16c0,.56-.46,1.02-1.02,1.02H5.02c-.56,0-1.02-.46-1.02-1.02v-56.97c0-.56.46-1.02,1.02-1.02h12.97c.56,0,1.02.46,1.02,1.02v53.98h0v2.99Zm73.78-34.14l-2.88,5.04c-.67,1.18-.84,2.6-.47,3.9l1.43,5.02c.05.18.06.35.02.5-1.6,7-6.98,16.7-12.89,16.7H22v-51.76c7.32-.61,26.79-4.36,27-26.87,0-.36-.03-.71-.1-1.07-1.02-5.09-.55-8.84.47-9.39.1-.05,2.53-1.2,11.22,7.5,5.33,5.34,7.7,15.62,8.46,19.79.44,2.4,2.53,4.15,4.98,4.15h7.71c.28,0,.55-.02.81-.07,2.57-.42,6.23-.35,8.09,1.23.92.78,1.36,1.92,1.36,3.48,0,4.66-1.44,6.78-2.59,8.47-.95,1.4-2.03,2.98-1.3,5.16.53,1.58,1.57,2.81,2.59,4,1.02,1.2,1.98,2.33,2.24,3.62.03.16-.02.38-.14.59Z" style="stroke-width:0px;"/></g></svg>